SplineFontDB: 3.0
FontName: Comme-Medium
FullName: Comme Medium
FamilyName: Comme
Weight: Medium
Copyright: Digitized data Copyright (c) 2011-2014, vernon adams.
Version: 2
ItalicAngle: 0
UnderlinePosition: 0
UnderlineWidth: 0
Ascent: 1638
Descent: 410
UFOAscent: 1560
UFODescent: -556
LayerCount: 2
Layer: 0 0 "Back"  1
Layer: 1 0 "Fore"  0
FSType: 0
OS2Version: 0
OS2_WeightWidthSlopeOnly: 0
OS2_UseTypoMetrics: 1
CreationTime: 1392152640
ModificationTime: 1392158597
PfmFamily: 17
TTFWeight: 500
TTFWidth: 5
LineGap: 0
VLineGap: 0
OS2TypoAscent: 2390
OS2TypoAOffset: 0
OS2TypoDescent: -512
OS2TypoDOffset: 0
OS2TypoLinegap: 0
OS2WinAscent: 2390
OS2WinAOffset: 0
OS2WinDescent: 512
OS2WinDOffset: 0
HheadAscent: 2390
HheadAOffset: 0
HheadDescent: -512
HheadDOffset: 0
OS2Vendor: 'NeWT'
Lookup: 4 0 1 "ligaStandardLigatureslookup0"  {"ligaStandardLigatureslookup0 subtable"  } ['liga' ('latn' <'dflt' > 'grek' <'dflt' > 'DFLT' <'dflt' > ) ]
Lookup: 4 0 0 "fracDiagonalFractionslookup11"  {"fracDiagonalFractionslookup11 subtable"  } ['frac' ('latn' <'dflt' 'CAT ' 'MOL ' 'ROM ' 'TRK ' > 'grek' <'dflt' > 'DFLT' <'dflt' > ) ]
Lookup: 6 0 0 "ordnOrdinalslookup12"  {"ordnOrdinalslookup12 contextual 0"  "ordnOrdinalslookup12 contextual 1"  } ['ordn' ('latn' <'dflt' 'CAT ' 'MOL ' 'ROM ' 'TRK ' > 'grek' <'dflt' > 'DFLT' <'dflt' > ) ]
Lookup: 1 0 0 "Single Substitution lookup 3"  {"Single Substitution lookup 3 subtable"  } []
Lookup: 1 0 0 "Single Substitution lookup 4"  {"Single Substitution lookup 4 subtable"  } []
Lookup: 4 0 0 "dligDiscretionaryLigatureslooku"  {"dligDiscretionaryLigatureslooku subtable"  } ['dlig' ('latn' <'dflt' 'CAT ' 'MOL ' 'ROM ' 'TRK ' > 'grek' <'dflt' > 'DFLT' <'dflt' > ) ]
MarkAttachClasses: 1
DEI: 91125
ChainSub2: coverage "ordnOrdinalslookup12 contextual 1"  0 0 0 1
 1 1 0
  Coverage: 3 O o
  BCoverage: 49 zero one two three four five six seven eight nine
 1
  SeqLookup: 0 "Single Substitution lookup 4" 
EndFPST

StartChar: A
Encoding: 33 65 0
Width: 1443
VWidth: 0
GlyphClass: 2
Flags: W
PickledData: "(dp1
S'org.pippin.gimp.org.kernagic'
p2
(dp3
S'lstem'
p4
I0
sS'rstem'
p5
I0
ssS'com.typemytype.robofont.layerData'
p6
(dp7
sS'org.robofab.postScriptHintData'
p8
(dp9
s."
AnchorPoint: "bot" 721 0 basechar 0
AnchorPoint: "ogonek" 1256 0 basechar 0
AnchorPoint: "top" 720 1456 basechar 0
LayerCount: 2
Fore
SplineSet
593 1456 m 257
 61 0 l 257
 291 0 l 257
 448 435 l 257
 992 435 l 257
 1151 0 l 257
 1382 0 l 257
 847 1456 l 257
 593 1456 l 257
498 589 m 257
 721 1245 l 257
 944 589 l 257
 498 589 l 257
EndSplineSet
Substitution2: "Single Substitution lookup 3 subtable" ordfeminine
EndChar

StartChar: AE
Encoding: 133 198 1
Width: 1694
VWidth: 0
GlyphClass: 2
Flags: W
PickledData: "(dp1
S'org.pippin.gimp.org.kernagic'
p2
(dp3
S'lstem'
p4
I0
sS'rstem'
p5
I0
ssS'com.typemytype.robofont.layerData'
p6
(dp7
sS'org.robofab.postScriptHintData'
p8
(dp9
s."
LayerCount: 2
Fore
SplineSet
817 592 m 257
 476 592 l 257
 817 1242 l 257
 817 592 l 257
728 1456 m 257
 -73 0 l 257
 166 0 l 257
 402 441 l 257
 817 441 l 257
 817 0 l 257
 1626 0 l 257
 1637 168 l 257
 1020 168 l 257
 1020 674 l 257
 1560 674 l 257
 1560 839 l 257
 1020 839 l 257
 1020 1292 l 257
 1610 1292 l 257
 1620 1456 l 257
 728 1456 l 257
EndSplineSet
EndChar

StartChar: B
Encoding: 34 66 13
Width: 1387
VWidth: 0
GlyphClass: 2
Flags: W
PickledData: "(dp1
S'org.pippin.gimp.org.kernagic'
p2
(dp3
S'lstem'
p4
I0
sS'rstem'
p5
I0
ssS'com.typemytype.robofont.layerData'
p6
(dp7
sS'org.robofab.postScriptHintData'
p8
(dp9
s."
AnchorPoint: "top" 667 1456 basechar 0
LayerCount: 2
Fore
SplineSet
568 -7 m 256
 1081 -7 1265 127 1265 433 c 256
 1265 619 1177 738 960 788 c 257
 1142 846 1216 959 1216 1095 c 256
 1216 1298 1121 1465 622 1465 c 256
 504 1465 363 1456 197 1438 c 257
 197 11 l 257
 336 -1 460 -7 568 -7 c 256
428 1298 m 257
 503 1305 574 1308 635 1308 c 256
 905 1308 993 1238 993 1077 c 256
 993 896 850 856 676 856 c 258
 428 856 l 257
 428 1298 l 257
428 704 m 257
 666 704 l 258
 921 704 1036 634 1036 434 c 256
 1036 269 990 158 601 158 c 256
 548 158 488 160 428 164 c 257
 428 704 l 257
EndSplineSet
EndChar

StartChar: C
Encoding: 35 67 14
Width: 1465
VWidth: 0
GlyphClass: 2
Flags: W
PickledData: "(dp1
S'org.pippin.gimp.org.kernagic'
p2
(dp3
S'lstem'
p4
I0
sS'rstem'
p5
I0
ssS'com.typemytype.robofont.layerData'
p6
(dp7
sS'org.robofab.postScriptHintData'
p8
(dp9
s."
AnchorPoint: "bot" 805 1 basechar 0
AnchorPoint: "top" 796 1456 basechar 0
LayerCount: 2
Fore
SplineSet
1370 1083 m 257
 1320 1320 1093 1477 811 1477 c 256
 408 1477 145 1206 145 730 c 256
 145 251 408 -19 811 -19 c 256
 1096 -19 1323 136 1373 374 c 257
 1205 438 l 257
 1187 438 l 257
 1151 281 1008 155 822 155 c 256
 561 155 385 339 385 730 c 256
 385 1122 558 1302 830 1302 c 256
 1012 1302 1149 1173 1184 1019 c 257
 1202 1019 l 257
 1370 1083 l 257
EndSplineSet
EndChar

StartChar: D
Encoding: 36 68 20
Width: 1511
VWidth: 0
GlyphClass: 2
Flags: W
PickledData: "(dp1
S'org.pippin.gimp.org.kernagic'
p2
(dp3
S'lstem'
p4
I0
sS'rstem'
p5
I0
ssS'com.typemytype.robofont.layerData'
p6
(dp7
sS'com.fontlab.hintData'
p8
(dp9
S'vhints'
p10
((dp11
S'position'
p12
I1280
sS'width'
p13
I122
stp14
sS'hhints'
p15
((dp16
g12
I0
sg13
I94
s(dp17
g12
I1355
sg13
I94
stp18
ssS'org.robofab.postScriptHintData'
p19
(dp20
s."
HStem: 0 94 1355 94
VStem: 1280 122
AnchorPoint: "mid" 319 763 basechar 0
AnchorPoint: "bot" 777 -1 basechar 0
AnchorPoint: "top" 756 1456 basechar 0
LayerCount: 2
Fore
SplineSet
197 10 m 257
 310 -4 414 -10 508 -10 c 256
 1155 -10 1366 298 1366 748 c 256
 1366 1194 1202 1463 572 1463 c 256
 462 1463 337 1455 197 1438 c 257
 197 10 l 257
428 159 m 257
 428 1293 l 257
 490 1299 547 1302 599 1302 c 256
 1047 1302 1137 1079 1137 743 c 256
 1137 396 1021 153 566 153 c 256
 523 153 477 155 428 159 c 257
EndSplineSet
EndChar

StartChar: uni0394
Encoding: 413 916 23
Width: 1334
VWidth: 0
Flags: W
PickledData: "(dp1
S'org.pippin.gimp.org.kernagic'
p2
(dp3
S'lstem'
p4
I0
sS'rstem'
p5
I0
ssS'com.typemytype.robofont.layerData'
p6
(dp7
S'b'
(dp8
S'name'
p9
S'Delta'
p10
sS'lib'
p11
(dp12
sS'unicodes'
p13
(tsS'width'
p14
I1334
sS'contours'
p15
(tsS'components'
p16
(tsS'anchors'
p17
(tsssS'org.robofab.postScriptHintData'
p18
(dp19
s."
LayerCount: 2
Fore
SplineSet
277 164 m 257
 658 1291 l 257
 1046 164 l 257
 277 164 l 257
38 0 m 257
 1285 0 l 257
 752 1495 l 257
 565 1495 l 257
 38 0 l 257
EndSplineSet
EndChar

StartChar: E
Encoding: 37 69 24
Width: 1320
VWidth: 0
GlyphClass: 2
Flags: W
PickledData: "(dp1
S'org.pippin.gimp.org.kernagic'
p2
(dp3
S'lstem'
p4
I0
sS'rstem'
p5
I0
ssS'com.typemytype.robofont.layerData'
p6
(dp7
sS'org.robofab.postScriptHintData'
p8
(dp9
s."
AnchorPoint: "bot" 700 0 basechar 0
AnchorPoint: "ogonek" 909 0 basechar 0
AnchorPoint: "top" 742 1456 basechar 0
LayerCount: 2
Fore
SplineSet
197 1456 m 257
 197 0 l 257
 1179 0 l 257
 1189 171 l 257
 428 171 l 257
 428 668 l 257
 1113 668 l 257
 1113 836 l 257
 428 836 l 257
 428 1289 l 257
 1163 1289 l 257
 1173 1456 l 257
 197 1456 l 257
EndSplineSet
EndChar

StartChar: Eng
Encoding: 265 330 33
Width: 1541
VWidth: 0
GlyphClass: 2
Flags: W
PickledData: "(dp1
S'org.robofab.postScriptHintData'
p2
(dp3
s."
LayerCount: 2
Fore
SplineSet
1138 946 m 257
 1139 -5 l 258
 1139 -221 1094 -290 755 -290 c 257
 762 -448 l 257
 1186 -444 1350 -339 1350 -16 c 258
 1350 946 l 257
 1138 946 l 257
EndSplineSet
Refer: 69 78 N 1 0 0 1 0 0 2
EndChar

StartChar: Euro
Encoding: 461 8364 36
Width: 1391
VWidth: 0
GlyphClass: 2
Flags: W
PickledData: "(dp1
S'org.pippin.gimp.org.kernagic'
p2
(dp3
S'lstem'
p4
I0
sS'rstem'
p5
I0
ssS'com.typemytype.robofont.layerData'
p6
(dp7
S'b'
(dp8
S'name'
p9
S'Euro'
p10
sS'lib'
p11
(dp12
sS'unicodes'
p13
(tsS'width'
p14
I1391
sS'contours'
p15
(tsS'components'
p16
(tsS'anchors'
p17
(tsssS'org.robofab.postScriptHintData'
p18
(dp19
s."
LayerCount: 2
Fore
SplineSet
-60 528 m 257
 807 528 l 257
 812 650 l 257
 225 650 l 257
 225 814 l 257
 812 814 l 257
 818 935 l 257
 -51 935 l 257
 -55 814 l 257
 115 814 l 257
 115 650 l 257
 -55 650 l 257
 -60 528 l 257
EndSplineSet
Refer: 14 67 N 1 0 0 1 -67 0 2
EndChar

StartChar: F
Encoding: 38 70 37
Width: 1220
VWidth: 0
GlyphClass: 2
Flags: W
PickledData: "(dp1
S'org.pippin.gimp.org.kernagic'
p2
(dp3
S'lstem'
p4
I0
sS'rstem'
p5
I705
ssS'com.typemytype.robofont.layerData'
p6
(dp7
sS'org.robofab.postScriptHintData'
p8
(dp9
s."
AnchorPoint: "top" 736 1456 basechar 0
LayerCount: 2
Fore
SplineSet
197 1456 m 257
 197 0 l 257
 428 0 l 257
 428 645 l 257
 1084 645 l 257
 1084 809 l 257
 428 809 l 257
 428 1284 l 257
 1161 1284 l 257
 1173 1456 l 257
 197 1456 l 257
EndSplineSet
EndChar

StartChar: G
Encoding: 39 71 38
Width: 1501
VWidth: 0
GlyphClass: 2
Flags: W
PickledData: "(dp1
S'org.pippin.gimp.org.kernagic'
p2
(dp3
S'lstem'
p4
I0
sS'rstem'
p5
I0
ssS'com.typemytype.robofont.layerData'
p6
(dp7
sS'org.robofab.postScriptHintData'
p8
(dp9
s."
AnchorPoint: "bot" 796 1 basechar 0
AnchorPoint: "top" 806 1456 basechar 0
LayerCount: 2
Fore
SplineSet
826 -20 m 256
 1035 -20 1205 13 1355 75 c 257
 1355 780 l 257
 838 780 l 257
 829 629 l 257
 1151 607 l 257
 1151 195 l 257
 1084 174 989 154 865 154 c 256
 530 154 385 360 385 735 c 256
 385 1086 546 1302 859 1302 c 256
 1039 1302 1153 1217 1213 1139 c 257
 1232 1139 l 257
 1359 1251 l 257
 1274 1380 1095 1476 847 1476 c 256
 406 1476 145 1191 145 734 c 256
 145 279 378 -20 826 -20 c 256
EndSplineSet
EndChar

StartChar: H
Encoding: 40 72 44
Width: 1552
VWidth: 0
GlyphClass: 2
Flags: W
PickledData: "(dp1
S'org.pippin.gimp.org.kernagic'
p2
(dp3
S'lstem'
p4
I0
sS'rstem'
p5
I0
ssS'com.typemytype.robofont.layerData'
p6
(dp7
sS'org.robofab.postScriptHintData'
p8
(dp9
s."
AnchorPoint: "top" 789 1456 basechar 0
LayerCount: 2
Fore
SplineSet
1121 662 m 257
 1121 -2 l 257
 1352 -2 l 257
 1352 1456 l 257
 1121 1456 l 257
 1121 834 l 257
 431 834 l 257
 431 1456 l 257
 200 1456 l 257
 200 -2 l 257
 431 -2 l 257
 431 662 l 257
 1121 662 l 257
EndSplineSet
EndChar

StartChar: Hbar
Encoding: 229 294 45
Width: 1507
VWidth: 0
GlyphClass: 2
Flags: W
PickledData: "(dp1
S'org.pippin.gimp.org.kernagic'
p2
(dp3
S'lstem'
p4
I0
sS'rstem'
p5
I0
ssS'com.typemytype.robofont.layerData'
p6
(dp7
sS'org.robofab.postScriptHintData'
p8
(dp9
s."
LayerCount: 2
Fore
SplineSet
63 1282 m 257
 63 1142 l 257
 1436 1142 l 257
 1436 1282 l 257
 63 1282 l 257
EndSplineSet
Refer: 44 72 N 1 0 0 1 0 0 2
EndChar

StartChar: I
Encoding: 41 73 47
Width: 989
VWidth: 0
GlyphClass: 2
Flags: W
PickledData: "(dp1
S'org.pippin.gimp.org.kernagic'
p2
(dp3
S'lstem'
p4
I0
sS'rstem'
p5
I0
ssS'com.typemytype.robofont.layerData'
p6
(dp7
sS'com.fontlab.hintData'
p8
(dp9
S'vhints'
p10
((dp11
S'position'
p12
I111
sS'width'
p13
I529
stp14
sS'hhints'
p15
((dp16
g12
I0
sg13
I86
s(dp17
g12
I1363
sg13
I86
stp18
ssS'org.robofab.postScriptHintData'
p19
(dp20
s."
HStem: 0 86 1363 86
VStem: 111 529
AnchorPoint: "ogonek" 498 0 basechar 0
AnchorPoint: "top" 492 1456 basechar 0
LayerCount: 2
Fore
SplineSet
177 1456 m 257
 177 1321 l 257
 376 1321 l 257
 376 134 l 257
 177 134 l 257
 177 -2 l 257
 804 -2 l 257
 804 134 l 257
 608 134 l 257
 608 1321 l 257
 804 1321 l 257
 804 1456 l 257
 177 1456 l 257
EndSplineSet
EndChar

StartChar: J
Encoding: 42 74 58
Width: 801
VWidth: 0
GlyphClass: 2
Flags: W
PickledData: "(dp1
S'org.pippin.gimp.org.kernagic'
p2
(dp3
S'lstem'
p4
I132
sS'rstem'
p5
I0
ssS'com.typemytype.robofont.layerData'
p6
(dp7
sS'org.robofab.postScriptHintData'
p8
(dp9
s."
AnchorPoint: "top" 470 1456 basechar 0
LayerCount: 2
Fore
SplineSet
349 1456 m 257
 349 80 l 258
 349 -133 342 -164 236 -210 c 257
 99 -271 l 257
 173 -446 l 257
 278 -405 l 257
 550 -300 580 -228 580 78 c 258
 580 1456 l 257
 349 1456 l 257
EndSplineSet
EndChar

StartChar: K
Encoding: 43 75 60
Width: 1346
VWidth: 0
GlyphClass: 2
Flags: W
PickledData: "(dp1
S'org.pippin.gimp.org.kernagic'
p2
(dp3
S'lstem'
p4
I0
sS'rstem'
p5
I851
ssS'com.typemytype.robofont.layerData'
p6
(dp7
sS'org.robofab.postScriptHintData'
p8
(dp9
s."
AnchorPoint: "bot" 709 0 basechar 0
AnchorPoint: "top" 707 1456 basechar 0
LayerCount: 2
Fore
SplineSet
1315 1456 m 257
 1062 1456 l 257
 428 788 l 257
 428 1456 l 257
 197 1456 l 257
 197 0 l 257
 428 0 l 257
 428 568 l 257
 564 704 l 257
 1097 0 l 257
 1356 0 l 257
 1356 16 l 257
 735 828 l 257
 1315 1439 l 257
 1315 1456 l 257
EndSplineSet
EndChar

StartChar: L
Encoding: 44 76 62
Width: 1124
VWidth: 0
GlyphClass: 2
Flags: W
PickledData: "(dp1
S'org.pippin.gimp.org.kernagic'
p2
(dp3
S'lstem'
p4
I0
sS'rstem'
p5
I597
ssS'com.typemytype.robofont.layerData'
p6
(dp7
sS'org.robofab.postScriptHintData'
p8
(dp9
s."
AnchorPoint: "mid" 341 761 basechar 0
AnchorPoint: "bot" 619 0 basechar 0
AnchorPoint: "top" 429 1456 basechar 0
LayerCount: 2
Fore
SplineSet
197 1456 m 257
 197 0 l 257
 1109 0 l 257
 1118 165 l 257
 428 165 l 257
 428 1456 l 257
 197 1456 l 257
EndSplineSet
EndChar

StartChar: M
Encoding: 45 77 68
Width: 1833
VWidth: 0
GlyphClass: 2
Flags: W
PickledData: "(dp1
S'org.pippin.gimp.org.kernagic'
p2
(dp3
S'lstem'
p4
I0
sS'rstem'
p5
I0
ssS'com.typemytype.robofont.guides'
p6
((dp7
S'y'
I378
sS'x'
I548
sS'magnetic'
p8
I5
sS'angle'
p9
I0
sS'isGlobal'
p10
I00
stp11
sS'com.typemytype.robofont.layerData'
p12
(dp13
sS'com.fontlab.hintData'
p14
(dp15
S'vhints'
p16
((dp17
S'position'
p18
I185
sS'width'
p19
I166
s(dp20
g18
I214
sg19
I151
s(dp21
g18
I332
sg19
I33
s(dp22
g18
I1463
sg19
I149
s(dp23
g18
I1463
sg19
I39
s(dp24
g18
I1477
sg19
I164
stp25
ssS'org.robofab.postScriptHintData'
p26
(dp27
s."
VStem: 185 166 214 151 332 33 1463 149 1463 39 1477 164
AnchorPoint: "top" 928 1456 basechar 0
LayerCount: 2
Fore
SplineSet
177 -2 m 257
 395 -2 l 257
 395 494 l 257
 403 1139 l 257
 829 186 l 257
 1001 186 l 257
 1431 1131 l 257
 1439 497 l 257
 1439 -2 l 257
 1656 -2 l 257
 1656 513 l 257
 1633 1456 l 257
 1377 1456 l 257
 919 450 l 257
 463 1456 l 257
 201 1456 l 257
 177 510 l 257
 177 -2 l 257
EndSplineSet
EndChar

StartChar: N
Encoding: 46 78 69
Width: 1547
VWidth: 0
GlyphClass: 2
Flags: W
PickledData: "(dp1
S'org.pippin.gimp.org.kernagic'
p2
(dp3
S'lstem'
p4
I0
sS'rstem'
p5
I0
ssS'com.typemytype.robofont.layerData'
p6
(dp7
sS'org.robofab.postScriptHintData'
p8
(dp9
s."
AnchorPoint: "bot" 775 0 basechar 0
AnchorPoint: "top" 783 1456 basechar 0
LayerCount: 2
Fore
SplineSet
1139 1456 m 257
 1139 715 l 257
 1151 305 l 257
 424 1456 l 257
 197 1456 l 257
 197 0 l 257
 412 0 l 257
 412 698 l 257
 395 1133 l 257
 1114 0 l 257
 1350 0 l 257
 1350 1456 l 257
 1139 1456 l 257
EndSplineSet
EndChar

StartChar: O
Encoding: 47 79 74
Width: 1628
VWidth: 0
GlyphClass: 2
Flags: W
PickledData: "(dp1
S'org.pippin.gimp.org.kernagic'
p2
(dp3
S'lstem'
p4
I0
sS'rstem'
p5
I0
ssS'com.typemytype.robofont.guides'
p6
(tsS'com.typemytype.robofont.layerData'
p7
(dp8
sS'com.fontlab.hintData'
p9
(dp10
S'vhints'
p11
((dp12
S'position'
p13
I150
sS'width'
p14
I122
s(dp15
g13
I1390
sg14
I122
stp16
sS'hhints'
p17
((dp18
g13
I-19
sg14
I96
s(dp19
g13
I1372
sg14
I96
stp20
ssS'org.robofab.postScriptHintData'
p21
(dp22
s."
HStem: -19 96 1372 96
VStem: 150 122 1390 122
AnchorPoint: "ogonek" 874 1 basechar 0
AnchorPoint: "top" 815 1456 basechar 0
LayerCount: 2
Fore
SplineSet
1241 721 m 256
 1241 380 1125 157 816 157 c 256
 506 157 388 380 388 721 c 256
 388 1073 515 1299 817 1299 c 256
 1120 1299 1241 1071 1241 721 c 256
148 722 m 256
 148 263 367 -21 817 -21 c 256
 1263 -21 1480 267 1480 720 c 256
 1480 1186 1254 1476 817 1476 c 256
 375 1476 148 1188 148 722 c 256
EndSplineSet
Substitution2: "Single Substitution lookup 4 subtable" ordmasculine
EndChar

StartChar: OE
Encoding: 273 338 75
Width: 2330
VWidth: 0
GlyphClass: 2
Flags: W
PickledData: "(dp1
S'org.pippin.gimp.org.kernagic'
p2
(dp3
S'lstem'
p4
I0
sS'rstem'
p5
I0
ssS'com.typemytype.robofont.layerData'
p6
(dp7
S'b'
(dp8
S'name'
p9
S'OE'
p10
sS'lib'
p11
(dp12
sS'unicodes'
p13
(tsS'width'
p14
I2367
sS'contours'
p15
(tsS'components'
p16
(tsS'anchors'
p17
(tsssS'org.robofab.postScriptHintData'
p18
(dp19
s."
LayerCount: 2
Fore
SplineSet
1220 722 m 256
 1220 382 1103 156 783 156 c 256
 463 156 344 382 344 722 c 256
 344 1075 472 1304 784 1304 c 256
 1098 1304 1220 1074 1220 722 c 256
127 723 m 256
 127 263 343 -19 784 -19 c 256
 980 -19 1127 43 1221 156 c 257
 1221 0 l 257
 2185 0 l 257
 2195 168 l 257
 1430 168 l 257
 1430 669 l 257
 2119 669 l 257
 2119 834 l 257
 1430 834 l 257
 1430 1292 l 257
 2169 1292 l 257
 2179 1456 l 257
 1221 1456 l 257
 1221 1297 l 257
 1127 1414 978 1478 785 1478 c 256
 351 1478 127 1193 127 723 c 256
EndSplineSet
EndChar

StartChar: Oslash
Encoding: 151 216 83
Width: 1629
VWidth: 0
GlyphClass: 2
Flags: W
PickledData: "(dp1
S'org.pippin.gimp.org.kernagic'
p2
(dp3
S'lstem'
p4
I0
sS'rstem'
p5
I0
ssS'com.typemytype.robofont.layerData'
p6
(dp7
sS'org.robofab.postScriptHintData'
p8
(dp9
s."
AnchorPoint: "top" 817 1456 basechar 0
LayerCount: 2
Fore
SplineSet
816 157 m 256
 769 157 726 162 688 173 c 257
 1082 1205 l 257
 1194 1109 1241 938 1241 721 c 256
 1241 380 1125 157 816 157 c 256
583 225 m 257
 443 311 388 489 388 721 c 256
 388 1073 515 1299 817 1299 c 256
 878 1299 932 1289 979 1272 c 257
 583 225 l 257
526 -252 m 257
 622 0 l 257
 681 -14 746 -21 817 -21 c 256
 1263 -21 1480 267 1480 720 c 256
 1480 1044 1370 1283 1157 1399 c 257
 1254 1655 l 257
 1140 1699 l 257
 1044 1444 l 257
 977 1466 901 1476 817 1476 c 256
 375 1476 148 1188 148 722 c 256
 148 383 267 139 511 35 c 257
 418 -213 l 257
 526 -252 l 257
EndSplineSet
EndChar

StartChar: P
Encoding: 48 80 86
Width: 1337
VWidth: 0
GlyphClass: 2
Flags: W
PickledData: "(dp1
S'org.pippin.gimp.org.kernagic'
p2
(dp3
S'lstem'
p4
I0
sS'rstem'
p5
I807
ssS'com.typemytype.robofont.layerData'
p6
(dp7
sS'org.robofab.postScriptHintData'
p8
(dp9
s."
AnchorPoint: "top" 700 1456 basechar 0
LayerCount: 2
Fore
SplineSet
197 1438 m 257
 197 0 l 257
 428 0 l 257
 428 609 l 257
 500 603 566 600 627 600 c 256
 1126 600 1248 786 1248 1052 c 256
 1248 1328 1094 1464 620 1464 c 256
 500 1464 360 1455 197 1438 c 257
428 768 m 257
 428 1296 l 257
 508 1303 577 1306 638 1306 c 256
 966 1306 1032 1208 1032 1045 c 256
 1032 871 966 759 616 759 c 256
 561 759 498 762 428 768 c 257
EndSplineSet
EndChar

StartChar: Q
Encoding: 49 81 87
Width: 1610
VWidth: 0
GlyphClass: 2
Flags: W
PickledData: "(dp1
S'org.pippin.gimp.org.kernagic'
p2
(dp3
S'lstem'
p4
I0
sS'rstem'
p5
I0
ssS'com.typemytype.robofont.layerData'
p6
(dp7
sS'org.robofab.postScriptHintData'
p8
(dp9
s."
LayerCount: 2
Fore
SplineSet
809 48 m 257
 817 20 1137 -423 1181 -460 c 257
 1329 -348 l 257
 1285 -311 1034 40 1009 79 c 257
 809 48 l 257
EndSplineSet
Refer: 74 79 N 1 0 0 1 0 0 2
EndChar

StartChar: R
Encoding: 50 82 88
Width: 1372
VWidth: 0
GlyphClass: 2
Flags: W
PickledData: "(dp1
S'org.pippin.gimp.org.kernagic'
p2
(dp3
S'lstem'
p4
I0
sS'rstem'
p5
I839
ssS'com.typemytype.robofont.layerData'
p6
(dp7
sS'com.fontlab.hintData'
p8
(dp9
S'vhints'
p10
((dp11
S'position'
p12
I1122
sS'width'
p13
I117
stp14
sS'hhints'
p15
((dp16
g12
I722
sg13
I96
s(dp17
g12
I1355
sg13
I94
stp18
ssS'org.robofab.postScriptHintData'
p19
(dp20
s."
HStem: 722 96 1355 94
VStem: 1122 117
AnchorPoint: "bot" 723 0 basechar 0
AnchorPoint: "top" 719 1456 basechar 0
LayerCount: 2
Fore
SplineSet
1262 1063 m 256
 1262 1356 1105 1467 673 1467 c 256
 541 1467 384 1457 197 1438 c 257
 197 0 l 257
 428 0 l 257
 428 651 l 257
 729 652 l 257
 1060 0 l 257
 1308 0 l 257
 1308 19 l 257
 961 679 l 257
 1140 726 1262 838 1262 1063 c 256
428 1293 m 257
 524 1301 607 1305 677 1305 c 256
 969 1305 1050 1230 1050 1064 c 256
 1050 876 973 803 671 803 c 258
 428 803 l 257
 428 1293 l 257
EndSplineSet
EndChar

StartChar: S
Encoding: 51 83 92
Width: 1223
VWidth: 0
GlyphClass: 2
Flags: W
PickledData: "(dp1
S'org.pippin.gimp.org.kernagic'
p2
(dp3
S'lstem'
p4
I185
sS'rstem'
p5
I826
ssS'com.typemytype.robofont.guides'
p6
((dp7
S'y'
I973
sS'x'
I1035
sS'magnetic'
p8
I5
sS'angle'
p9
F90
sS'isGlobal'
p10
I00
s(dp11
S'y'
I382
sS'x'
I75
sg8
I5
sg9
F90
sg10
I00
stp12
sS'com.typemytype.robofont.layerData'
p13
(dp14
sS'org.robofab.postScriptHintData'
p15
(dp16
s."
AnchorPoint: "bot" 620 0 basechar 0
AnchorPoint: "top" 620 1471 basechar 0
LayerCount: 2
Fore
SplineSet
886 387 m 256
 886 219 764 157 598 157 c 256
 471 157 339 212 253 300 c 257
 236 300 l 257
 105 184 l 257
 186 80 358 -20 602 -20 c 256
 859 -20 1111 90 1111 390 c 256
 1111 649 974 724 742 817 c 258
 544 896 l 257
 390 960 342 995 342 1103 c 256
 342 1257 469 1305 616 1305 c 256
 747 1305 868 1255 936 1164 c 257
 953 1164 l 257
 1086 1272 l 257
 997 1389 829 1476 617 1476 c 256
 353 1476 112 1385 112 1075 c 256
 112 868 227 800 420 721 c 257
 627 635 l 258
 828 552 886 512 886 387 c 256
EndSplineSet
EndChar

StartChar: T
Encoding: 52 84 98
Width: 1175
VWidth: 0
GlyphClass: 2
Flags: W
PickledData: "(dp1
S'org.pippin.gimp.org.kernagic'
p2
(dp3
S'lstem'
p4
I285
sS'rstem'
p5
I844
ssS'com.typemytype.robofont.layerData'
p6
(dp7
sS'org.robofab.postScriptHintData'
p8
(dp9
s."
AnchorPoint: "mid" 590 741 basechar 0
AnchorPoint: "bot" 592 0 basechar 0
AnchorPoint: "top" 592 1456 basechar 0
LayerCount: 2
Fore
SplineSet
13 1456 m 257
 13 1291 l 257
 471 1291 l 257
 471 -2 l 257
 703 -2 l 257
 703 1291 l 257
 1162 1291 l 257
 1162 1456 l 257
 13 1456 l 257
EndSplineSet
EndChar

StartChar: Thorn
Encoding: 157 222 103
Width: 1262
VWidth: 0
GlyphClass: 2
Flags: W
PickledData: "(dp1
S'org.pippin.gimp.org.kernagic'
p2
(dp3
S'lstem'
p4
I0
sS'rstem'
p5
I0
ssS'com.typemytype.robofont.layerData'
p6
(dp7
S'b'
(dp8
S'name'
p9
S'Thorn'
p10
sS'lib'
p11
(dp12
sS'unicodes'
p13
(tsS'width'
p14
I1192
sS'contours'
p15
(tsS'components'
p16
(tsS'anchors'
p17
(tsssS'org.robofab.postScriptHintData'
p18
(dp19
s."
LayerCount: 2
Fore
SplineSet
186 0 m 257
 418 0 l 257
 418 424 l 257
 591 424 l 258
 977 424 1114 565 1114 834 c 256
 1114 1105 926 1199 581 1199 c 258
 418 1199 l 257
 418 1486 l 257
 186 1486 l 257
 186 0 l 257
418 1040 m 257
 586 1040 l 258
 798 1040 887 986 887 828 c 256
 887 653 815 585 574 585 c 258
 418 585 l 257
 418 1040 l 257
EndSplineSet
EndChar

StartChar: U
Encoding: 53 85 104
Width: 1470
VWidth: 0
GlyphClass: 2
Flags: W
PickledData: "(dp1
S'org.pippin.gimp.org.kernagic'
p2
(dp3
S'lstem'
p4
I0
sS'rstem'
p5
I0
ssS'com.typemytype.robofont.layerData'
p6
(dp7
sS'org.robofab.postScriptHintData'
p8
(dp9
s."
AnchorPoint: "bot" 734 1 basechar 0
AnchorPoint: "ogonek" 858 16 basechar 0
AnchorPoint: "top" 742 1456 basechar 0
LayerCount: 2
Fore
SplineSet
1069 1457 m 257
 1069 549 l 258
 1069 290 967 158 732 158 c 256
 492 158 396 290 396 549 c 258
 396 1457 l 257
 165 1457 l 257
 165 540 l 258
 165 204 339 -20 732 -20 c 256
 1122 -20 1301 209 1301 538 c 258
 1301 1457 l 257
 1069 1457 l 257
EndSplineSet
EndChar

StartChar: V
Encoding: 54 86 115
Width: 1429
VWidth: 0
GlyphClass: 2
Flags: W
PickledData: "(dp1
S'org.pippin.gimp.org.kernagic'
p2
(dp3
S'lstem'
p4
I0
sS'rstem'
p5
I0
ssS'com.typemytype.robofont.layerData'
p6
(dp7
sS'org.robofab.postScriptHintData'
p8
(dp9
s."
LayerCount: 2
Fore
SplineSet
591 -2 m 257
 820 -2 l 257
 1366 1456 l 257
 1128 1456 l 257
 988 1049 842 647 709 234 c 257
 577 647 433 1049 294 1456 c 257
 63 1456 l 257
 591 -2 l 257
EndSplineSet
EndChar

StartChar: W
Encoding: 55 87 116
Width: 1993
VWidth: 0
GlyphClass: 2
Flags: W
PickledData: "(dp1
S'org.pippin.gimp.org.kernagic'
p2
(dp3
S'lstem'
p4
I0
sS'rstem'
p5
I0
ssS'com.typemytype.robofont.layerData'
p6
(dp7
sS'org.robofab.postScriptHintData'
p8
(dp9
s."
AnchorPoint: "bot" 998 0 basechar 0
AnchorPoint: "top" 1006 1456 basechar 0
LayerCount: 2
Fore
SplineSet
1003 1148 m 257
 1325 0 l 257
 1543 0 l 257
 1921 1456 l 257
 1697 1456 l 257
 1430 295 l 257
 1105 1432 l 257
 899 1432 l 257
 573 304 l 257
 284 1456 l 257
 72 1456 l 257
 451 0 l 257
 667 0 l 257
 1003 1148 l 257
EndSplineSet
EndChar

StartChar: X
Encoding: 56 88 121
Width: 1317
VWidth: 0
GlyphClass: 2
Flags: W
PickledData: "(dp1
S'org.pippin.gimp.org.kernagic'
p2
(dp3
S'lstem'
p4
I0
sS'rstem'
p5
I0
ssS'com.typemytype.robofont.layerData'
p6
(dp7
sS'org.robofab.postScriptHintData'
p8
(dp9
s."
LayerCount: 2
Fore
SplineSet
787 731 m 257
 1264 1456 l 257
 1016 1456 l 257
 667 913 l 257
 305 1456 l 257
 51 1456 l 257
 523 744 l 257
 35 -2 l 257
 273 -2 l 257
 646 559 l 257
 1018 -2 l 257
 1275 -2 l 257
 787 731 l 257
EndSplineSet
EndChar

StartChar: Y
Encoding: 57 89 122
Width: 1361
VWidth: 0
GlyphClass: 2
Flags: W
PickledData: "(dp1
S'org.pippin.gimp.org.kernagic'
p2
(dp3
S'lstem'
p4
I0
sS'rstem'
p5
I0
ssS'com.typemytype.robofont.layerData'
p6
(dp7
sS'org.robofab.postScriptHintData'
p8
(dp9
s."
AnchorPoint: "top" 682 1456 basechar 0
LayerCount: 2
Fore
SplineSet
798 526 m 257
 1300 1456 l 257
 1065 1456 l 257
 681 733 l 257
 288 1456 l 257
 61 1456 l 257
 566 528 l 257
 566 0 l 257
 798 0 l 257
 798 526 l 257
EndSplineSet
EndChar

StartChar: Z
Encoding: 58 90 127
Width: 1205
VWidth: 0
GlyphClass: 2
Flags: W
PickledData: "(dp1
S'org.pippin.gimp.org.kernagic'
p2
(dp3
S'lstem'
p4
I0
sS'rstem'
p5
I0
ssS'com.typemytype.robofont.layerData'
p6
(dp7
sS'org.robofab.postScriptHintData'
p8
(dp9
s."
AnchorPoint: "bot" 639 0 basechar 0
AnchorPoint: "top" 661 1456 basechar 0
LayerCount: 2
Fore
SplineSet
95 0 m 257
 1137 0 l 257
 1139 165 l 257
 362 165 l 257
 1129 1308 l 257
 1124 1456 l 257
 121 1456 l 257
 126 1292 l 257
 873 1292 l 257
 95 146 l 257
 95 0 l 257
EndSplineSet
EndChar

StartChar: a
Encoding: 65 97 131
Width: 1129
VWidth: 0
GlyphClass: 2
Flags: W
PickledData: "(dp1
S'org.pippin.gimp.org.kernagic'
p2
(dp3
S'lstem'
p4
I0
sS'rstem'
p5
I0
ssS'com.typemytype.robofont.guides'
p6
(tsS'com.typemytype.robofont.layerData'
p7
(dp8
sS'com.fontlab.hintData'
p9
(dp10
S'vhints'
p11
((dp12
S'position'
p13
I126
sS'width'
p14
I120
s(dp15
g13
I842
sg14
I32
s(dp16
g13
I875
sg14
I86
stp17
sS'hhints'
p18
((dp19
g13
I-15
sg14
I92
s(dp20
g13
I535
sg14
I82
s(dp21
g13
I983
sg14
I92
stp22
ssS'org.robofab.postScriptHintData'
p23
(dp24
s."
HStem: -15 92 535 82 983 92
VStem: 126 120 842 32 875 86
AnchorPoint: "bot" 525 1 basechar 0
AnchorPoint: "ogonek" 899 1 basechar 0
AnchorPoint: "top" 562 1083 basechar 0
LayerCount: 2
Fore
SplineSet
494 123 m 256
 393 123 309 171 309 296 c 256
 309 420 388 478 589 478 c 258
 771 477 l 257
 771 252 l 257
 710 178 618 123 494 123 c 256
107 296 m 256
 107 83 248 -19 454 -19 c 256
 605 -19 711 32 794 128 c 257
 812 0 l 257
 986 0 l 257
 986 691 l 258
 986 992 810 1105 564 1105 c 256
 419 1105 264 1070 146 999 c 257
 201 847 l 257
 308 913 446 945 547 945 c 256
 695 945 771 877 771 716 c 258
 771 601 l 257
 557 604 l 257
 549 604 l 258
 264 604 107 502 107 296 c 256
EndSplineSet
Substitution2: "Single Substitution lookup 3 subtable" ordfeminine
EndChar

StartChar: acute
Encoding: 115 180 135
Width: 744
VWidth: 0
GlyphClass: 4
Flags: W
PickledData: "(dp1
S'org.robofab.postScriptHintData'
p2
(dp3
sS'com.typemytype.robofont.layerData'
p4
(dp5
s."
AnchorPoint: "top" 384 1082 mark 0
LayerCount: 2
Fore
SplineSet
312 1208 m 257
 448 1208 l 257
 755 1591 l 257
 504 1591 l 257
 312 1208 l 257
EndSplineSet
EndChar

StartChar: ae
Encoding: 165 230 137
Width: 1676
VWidth: 0
GlyphClass: 2
Flags: W
PickledData: "(dp1
S'org.pippin.gimp.org.kernagic'
p2
(dp3
S'lstem'
p4
I0
sS'rstem'
p5
I0
ssS'com.typemytype.robofont.layerData'
p6
(dp7
sS'com.fontlab.hintData'
p8
(dp9
S'vhints'
p10
((dp11
S'position'
p12
I126
sS'width'
p13
I119
s(dp14
g12
I817
sg13
I117
s(dp15
g12
I817
sg13
I82
s(dp16
g12
I1556
sg13
I98
stp17
sS'hhints'
p18
((dp19
g12
I-14
sg13
I98
s(dp20
g12
I518
sg13
I82
s(dp21
g12
I983
sg13
I92
stp22
ssS'org.robofab.postScriptHintData'
p23
(dp24
s."
HStem: -14 98 518 82 983 92
VStem: 126 119 817 117 817 82 1556 98
AnchorPoint: "top" 968 1082 basechar 0
LayerCount: 2
Fore
SplineSet
1223 951 m 256
 1377 951 1428 864 1428 760 c 256
 1428 677 1397 601 1106 601 c 256
 1056 601 998 603 931 608 c 257
 945 843 1057 951 1223 951 c 256
740 342 m 257
 731 208 620 122 456 122 c 256
 371 122 265 164 265 296 c 256
 265 420 325 501 526 501 c 256
 561 501 669 497 732 490 c 257
 732 482 736 352 740 342 c 257
1604 764 m 256
 1604 942 1477 1102 1219 1102 c 256
 1062 1102 936 1043 858 906 c 257
 815 1046 693 1102 519 1102 c 256
 352 1102 221 1057 87 973 c 257
 156 839 l 257
 280 914 410 942 510 942 c 256
 657 942 732 882 732 713 c 258
 732 616 l 257
 665 624 533 627 494 627 c 256
 203 627 63 504 63 296 c 256
 63 90 196 -12 391 -19 c 257
 566 -19 740 36 828 192 c 257
 903 57 1035 -20 1228 -20 c 256
 1386 -20 1521 27 1610 92 c 257
 1557 227 l 257
 1469 175 1382 134 1254 134 c 256
 1081 134 948 212 929 470 c 257
 999 466 1066 463 1129 463 c 256
 1405 463 1604 516 1604 764 c 256
EndSplineSet
EndChar

StartChar: ampersand
Encoding: 6 38 142
Width: 1420
VWidth: 0
GlyphClass: 2
Flags: W
PickledData: "(dp1
S'org.pippin.gimp.org.kernagic'
p2
(dp3
S'lstem'
p4
I0
sS'rstem'
p5
I0
ssS'com.typemytype.robofont.layerData'
p6
(dp7
sS'com.fontlab.hintData'
p8
(dp9
S'vhints'
p10
((dp11
S'position'
p12
I135
sS'width'
p13
I121
s(dp14
g12
I312
sg13
I105
s(dp15
g12
I917
sg13
I110
stp16
sS'hhints'
p17
((dp18
g12
I-19
sg13
I96
s(dp19
g12
I1372
sg13
I96
stp20
ssS'org.robofab.postScriptHintData'
p21
(dp22
s."
HStem: -19 96 1372 96
VStem: 135 121 312 105 917 110
LayerCount: 2
Fore
SplineSet
610 1351 m 256
 729 1351 796 1289 796 1176 c 256
 796 1039 672 951 541 882 c 257
 436 1006 403 1080 403 1173 c 256
 403 1283 493 1351 610 1351 c 256
94 403 m 256
 94 145 279 -19 563 -19 c 256
 754 -19 899 57 1013 164 c 257
 1199 -25 l 257
 1314 87 l 257
 1121 283 l 257
 1224 416 1296 568 1356 682 c 257
 1231 766 l 257
 1150 611 1078 490 1009 397 c 257
 632 778 l 257
 802 870 974 983 974 1181 c 256
 974 1393 806 1493 607 1493 c 256
 393 1493 226 1367 226 1164 c 256
 226 1038 288 921 398 807 c 257
 222 713 94 610 94 403 c 256
583 137 m 256
 395 137 285 238 285 407 c 256
 285 548 377 632 493 694 c 257
 904 276 l 257
 802 177 701 137 583 137 c 256
EndSplineSet
EndChar

StartChar: uni02BC
Encoding: 65536 700 144
Width: 646
VWidth: 0
Flags: W
PickledData: "(dp1
S'org.robofab.postScriptHintData'
p2
(dp3
sS'com.typemytype.robofont.layerData'
p4
(dp5
s."
LayerCount: 2
Fore
SplineSet
102 1142 m 257
 264 1142 l 257
 264 1142 352 1477 372 1586 c 257
 164 1586 l 257
 158 1531 102 1142 102 1142 c 257
EndSplineSet
EndChar

StartChar: approxequal
Encoding: 477 8776 145
Width: 1181
VWidth: 0
GlyphClass: 2
Flags: W
PickledData: "(dp1
S'org.pippin.gimp.org.kernagic'
p2
(dp3
S'lstem'
p4
I0
sS'rstem'
p5
I0
ssS'com.typemytype.robofont.layerData'
p6
(dp7
S'b'
(dp8
S'name'
p9
S'approxequal'
p10
sS'lib'
p11
(dp12
sS'unicodes'
p13
(tsS'width'
p14
I1136
sS'contours'
p15
(tsS'components'
p16
(tsS'anchors'
p17
(tsssS'org.robofab.postScriptHintData'
p18
(dp19
s."
LayerCount: 2
Fore
SplineSet
157 406 m 257
 196 498 268 568 355 568 c 256
 420 568 488 534 573 495 c 256
 672 446 748 415 827 415 c 256
 970 415 1043 503 1090 640 c 257
 1017 723 l 257
 977 627 902 565 826 565 c 256
 767 565 693 602 604 643 c 256
 501 693 441 719 357 719 c 256
 215 719 126 624 84 495 c 257
 157 406 l 257
157 762 m 257
 196 854 268 924 355 924 c 256
 420 924 488 890 573 851 c 256
 672 802 748 771 827 771 c 256
 970 771 1043 859 1090 996 c 257
 1017 1079 l 257
 977 983 902 921 826 921 c 256
 767 921 693 958 604 999 c 256
 501 1049 441 1075 357 1075 c 256
 215 1075 126 980 84 851 c 257
 157 762 l 257
EndSplineSet
EndChar

StartChar: asciicircum
Encoding: 62 94 148
Width: 1337
VWidth: 0
GlyphClass: 2
Flags: W
PickledData: "(dp1
S'org.pippin.gimp.org.kernagic'
p2
(dp3
S'lstem'
p4
I0
sS'rstem'
p5
I0
ssS'com.typemytype.robofont.layerData'
p6
(dp7
sS'org.robofab.postScriptHintData'
p8
(dp9
s."
LayerCount: 2
Fore
SplineSet
616 1456 m 257
 95 292 l 257
 309 292 l 257
 667 1120 l 257
 1027 292 l 257
 1242 292 l 257
 713 1456 l 257
 616 1456 l 257
EndSplineSet
EndChar

StartChar: asciitilde
Encoding: 94 126 149
Width: 1192
VWidth: 0
GlyphClass: 2
Flags: W
PickledData: "(dp1
S'org.pippin.gimp.org.kernagic'
p2
(dp3
S'lstem'
p4
I0
sS'rstem'
p5
I0
ssS'com.typemytype.robofont.layerData'
p6
(dp7
S'b'
(dp8
S'name'
p9
S'asciitilde'
p10
sS'lib'
p11
(dp12
sS'unicodes'
p13
(tsS'width'
p14
I1192
sS'contours'
p15
(tsS'components'
p16
(tsS'anchors'
p17
(tsssS'org.robofab.postScriptHintData'
p18
(dp19
s."
LayerCount: 2
Fore
SplineSet
152 485 m 257
 196 569 271 641 358 641 c 256
 428 641 497 609 591 566 c 256
 675 527 747 498 824 498 c 256
 953 498 1044 581 1093 698 c 257
 1035 804 l 257
 984 716 909 653 830 653 c 256
 772 653 696 689 604 729 c 256
 509 772 443 796 363 796 c 256
 229 796 143 708 96 599 c 257
 152 485 l 257
EndSplineSet
EndChar

StartChar: asterisk
Encoding: 10 42 150
Width: 967
VWidth: 0
GlyphClass: 2
Flags: W
PickledData: "(dp1
S'org.pippin.gimp.org.kernagic'
p2
(dp3
S'lstem'
p4
I0
sS'rstem'
p5
I0
ssS'com.typemytype.robofont.layerData'
p6
(dp7
sS'org.robofab.postScriptHintData'
p8
(dp9
s."
LayerCount: 2
Fore
SplineSet
307 566 m 257
 483 902 l 257
 670 565 l 257
 711 591 785 635 825 661 c 257
 759 746 627 921 587 973 c 257
 933 1051 l 257
 883 1227 l 257
 544 1085 l 257
 579 1474 l 257
 394 1474 l 257
 428 1085 l 257
 92 1227 l 257
 41 1051 l 257
 383 973 l 257
 150 661 l 257
 307 566 l 257
EndSplineSet
EndChar

StartChar: at
Encoding: 32 64 151
Width: 1957
VWidth: 0
GlyphClass: 2
Flags: W
PickledData: "(dp1
S'org.pippin.gimp.org.kernagic'
p2
(dp3
S'lstem'
p4
I0
sS'rstem'
p5
I0
ssS'com.typemytype.robofont.layerData'
p6
(dp7
sS'org.robofab.postScriptHintData'
p8
(dp9
s."
LayerCount: 2
Fore
SplineSet
911 360 m 256
 798 360 750 448 750 592 c 256
 750 809 870 981 1049 981 c 256
 1077 981 1136 973 1178 964 c 257
 1137 712 l 257
 1104 502 1054 360 911 360 c 256
958 -181 m 256
 1155 -181 1357 -132 1486 -40 c 257
 1438 79 l 257
 1302 -5 1129 -36 961 -36 c 256
 552 -36 324 240 324 628 c 256
 324 1034 588 1363 1019 1363 c 256
 1442 1363 1645 1099 1645 778 c 256
 1645 506 1526 368 1417 368 c 256
 1349 368 1298 424 1298 505 c 256
 1298 631 1335 821 1364 1029 c 257
 1281 1072 1144 1107 1033 1107 c 256
 739 1107 580 844 580 590 c 256
 580 387 689 226 894 226 c 256
 1032 226 1128 331 1177 450 c 257
 1207 315 1352 291 1417 232 c 257
 1595 232 1803 414 1803 770 c 256
 1803 1219 1464 1507 1026 1507 c 256
 519 1507 148 1131 148 632 c 256
 148 124 479 -181 958 -181 c 256
EndSplineSet
EndChar

StartChar: b
Encoding: 66 98 153
Width: 1222
VWidth: 0
GlyphClass: 2
Flags: W
PickledData: "(dp1
S'org.pippin.gimp.org.kernagic'
p2
(dp3
S'lstem'
p4
I0
sS'rstem'
p5
I0
ssS'com.typemytype.robofont.guides'
p6
(tsS'com.typemytype.robofont.layerData'
p7
(dp8
sS'com.fontlab.hintData'
p9
(dp10
S'vhints'
p11
((dp12
S'position'
p13
I193
sS'width'
p14
I125
s(dp15
g13
I193
sg14
I94
s(dp16
g13
I1018
sg14
I122
stp17
sS'hhints'
p18
((dp19
g13
I-19
sg14
I92
s(dp20
g13
I982
sg14
I92
stp21
ssS'org.robofab.postScriptHintData'
p22
(dp23
s."
HStem: -19 92 982 92
VStem: 193 125 193 94 1018 122
AnchorPoint: "top" 683 1082 basechar 0
LayerCount: 2
Fore
SplineSet
633 134 m 256
 518 134 428 176 368 258 c 257
 368 560 l 258
 368 809 460 951 651 951 c 256
 831 951 895 795 895 543 c 256
 895 283 810 134 633 134 c 256
689 1105 m 256
 554 1105 432 1047 365 888 c 257
 373 1117 l 257
 373 1560 l 257
 157 1540 l 257
 157 0 l 257
 339 0 l 257
 350 120 l 257
 411 43 514 -20 659 -20 c 256
 954 -20 1116 207 1116 544 c 256
 1116 869 982 1105 689 1105 c 256
EndSplineSet
EndChar

StartChar: backslash
Encoding: 60 92 154
Width: 937
VWidth: 0
GlyphClass: 2
Flags: W
PickledData: "(dp1
S'org.pippin.gimp.org.kernagic'
p2
(dp3
S'lstem'
p4
I0
sS'rstem'
p5
I0
ssS'com.typemytype.robofont.layerData'
p6
(dp7
S'b'
(dp8
S'name'
p9
S'backslash'
p10
sS'lib'
p11
(dp12
sS'unicodes'
p13
(tsS'width'
p14
I937
sS'contours'
p15
(tsS'components'
p16
(tsS'anchors'
p17
(tsssS'org.robofab.postScriptHintData'
p18
(dp19
s."
LayerCount: 2
Fore
SplineSet
621 -10 m 257
 785 -10 l 257
 262 1485 l 257
 96 1485 l 257
 621 -10 l 257
EndSplineSet
EndChar

StartChar: bar
Encoding: 92 124 155
Width: 697
VWidth: 0
GlyphClass: 2
Flags: W
PickledData: "(dp1
S'org.pippin.gimp.org.kernagic'
p2
(dp3
S'lstem'
p4
I0
sS'rstem'
p5
I0
ssS'com.typemytype.robofont.layerData'
p6
(dp7
S'b'
(dp8
S'name'
p9
S'bar'
p10
sS'lib'
p11
(dp12
sS'unicodes'
p13
(tsS'width'
p14
I681
sS'contours'
p15
(tsS'components'
p16
(tsS'anchors'
p17
(tsssS'org.robofab.postScriptHintData'
p18
(dp19
s."
LayerCount: 2
Fore
SplineSet
265 1476 m 257
 265 -325 l 257
 427 -325 l 257
 427 1476 l 257
 265 1476 l 257
EndSplineSet
EndChar

StartChar: braceleft
Encoding: 91 123 156
Width: 882
VWidth: 0
GlyphClass: 2
Flags: W
PickledData: "(dp1
S'org.pippin.gimp.org.kernagic'
p2
(dp3
S'lstem'
p4
I0
sS'rstem'
p5
I0
ssS'com.typemytype.robofont.layerData'
p6
(dp7
sS'org.robofab.postScriptHintData'
p8
(dp9
s."
LayerCount: 2
Fore
SplineSet
753 -273 m 257
 753 -133 l 257
 608 -132 589 -107 589 82 c 258
 589 343 l 258
 589 502 551 588 390 617 c 257
 551 646 589 732 589 891 c 258
 589 1154 l 258
 589 1343 608 1368 753 1369 c 257
 753 1509 l 257
 479 1509 395 1463 395 1184 c 258
 395 963 l 258
 395 770 391 698 191 698 c 257
 191 537 l 257
 393 537 395 464 395 272 c 258
 395 52 l 258
 395 -228 479 -273 753 -273 c 257
EndSplineSet
EndChar

StartChar: braceright
Encoding: 93 125 157
Width: 882
VWidth: 0
GlyphClass: 2
Flags: W
PickledData: "(dp1
S'org.pippin.gimp.org.kernagic'
p2
(dp3
S'lstem'
p4
I0
sS'rstem'
p5
I0
ssS'com.typemytype.robofont.layerData'
p6
(dp7
sS'org.robofab.postScriptHintData'
p8
(dp9
s."
LayerCount: 2
Fore
SplineSet
134 -273 m 257
 408 -273 492 -228 492 52 c 258
 492 272 l 258
 492 464 494 537 696 537 c 257
 696 698 l 257
 496 698 492 770 492 963 c 258
 492 1184 l 258
 492 1463 408 1509 134 1509 c 257
 134 1369 l 257
 279 1368 298 1343 298 1154 c 258
 298 891 l 258
 298 732 336 646 497 617 c 257
 336 588 298 502 298 343 c 258
 298 82 l 258
 298 -107 279 -132 134 -133 c 257
 134 -273 l 257
EndSplineSet
EndChar

StartChar: bracketleft
Encoding: 59 91 158
Width: 823
VWidth: 0
GlyphClass: 2
Flags: W
PickledData: "(dp1
S'org.pippin.gimp.org.kernagic'
p2
(dp3
S'lstem'
p4
I0
sS'rstem'
p5
I0
ssS'com.typemytype.robofont.layerData'
p6
(dp7
sS'org.robofab.postScriptHintData'
p8
(dp9
s."
LayerCount: 2
Fore
SplineSet
220 -254 m 257
 679 -254 l 257
 679 -109 l 257
 416 -109 l 257
 416 1334 l 257
 679 1334 l 257
 679 1478 l 257
 220 1478 l 257
 220 -254 l 257
EndSplineSet
EndChar

StartChar: bracketright
Encoding: 61 93 159
Width: 965
VWidth: 0
GlyphClass: 2
Flags: W
PickledData: "(dp1
S'org.pippin.gimp.org.kernagic'
p2
(dp3
S'lstem'
p4
I0
sS'rstem'
p5
I0
ssS'com.typemytype.robofont.layerData'
p6
(dp7
sS'org.robofab.postScriptHintData'
p8
(dp9
s."
LayerCount: 2
Fore
SplineSet
290 -254 m 257
 749 -254 l 257
 749 1478 l 257
 290 1478 l 257
 290 1334 l 257
 553 1334 l 257
 553 -109 l 257
 290 -109 l 257
 290 -254 l 257
EndSplineSet
EndChar

StartChar: breve
Encoding: 401 728 160
Width: 886
VWidth: 0
GlyphClass: 4
Flags: W
PickledData: "(dp1
S'org.robofab.postScriptHintData'
p2
(dp3
sS'com.typemytype.robofont.layerData'
p4
(dp5
s."
AnchorPoint: "top" 431 1069 mark 0
LayerCount: 2
Fore
SplineSet
428 1294 m 256
 575 1294 684 1379 684 1544 c 257
 555 1544 l 257
 555 1461 492 1421 428 1421 c 256
 365 1421 305 1461 305 1544 c 257
 173 1544 l 257
 173 1378 281 1294 428 1294 c 256
EndSplineSet
EndChar

StartChar: uni0311
Encoding: 409 785 161
Width: 812
VWidth: 0
Flags: W
PickledData: "(dp1
S'org.robofab.postScriptHintData'
p2
(dp3
sS'com.typemytype.robofont.layerData'
p4
(dp5
s."
AnchorPoint: "top" 419 1069 mark 0
LayerCount: 2
Fore
SplineSet
159 1294 m 257
 291 1294 l 257
 291 1378 351 1417 414 1417 c 256
 478 1417 542 1378 542 1294 c 257
 671 1294 l 257
 671 1460 562 1544 414 1544 c 256
 267 1544 159 1460 159 1294 c 257
EndSplineSet
EndChar

StartChar: brokenbar
Encoding: 101 166 162
Width: 683
VWidth: 0
GlyphClass: 2
Flags: W
PickledData: "(dp1
S'org.pippin.gimp.org.kernagic'
p2
(dp3
S'lstem'
p4
I0
sS'rstem'
p5
I0
ssS'com.typemytype.robofont.layerData'
p6
(dp7
S'b'
(dp8
S'name'
p9
S'brokenbar'
p10
sS'lib'
p11
(dp12
sS'unicodes'
p13
(tsS'width'
p14
I653
sS'contours'
p15
(tsS'components'
p16
(tsS'anchors'
p17
(tsssS'org.robofab.postScriptHintData'
p18
(dp19
s."
LayerCount: 2
Fore
SplineSet
264 1545 m 257
 264 806 l 257
 416 806 l 257
 416 1545 l 257
 264 1545 l 257
264 484 m 257
 264 -258 l 257
 416 -258 l 257
 416 484 l 257
 264 484 l 257
EndSplineSet
EndChar

StartChar: bullet
Encoding: 454 8226 163
Width: 923
VWidth: 0
GlyphClass: 2
Flags: W
PickledData: "(dp1
S'org.pippin.gimp.org.kernagic'
p2
(dp3
S'lstem'
p4
I0
sS'rstem'
p5
I0
ssS'com.typemytype.robofont.layerData'
p6
(dp7
S'b'
(dp8
S'name'
p9
S'bullet'
p10
sS'lib'
p11
(dp12
sS'unicodes'
p13
(tsS'width'
p14
I908
sS'contours'
p15
(tsS'components'
p16
(tsS'anchors'
p17
(tsssS'org.robofab.postScriptHintData'
p18
(dp19
s."
LayerCount: 2
Fore
SplineSet
450 395 m 256
 626 395 779 526 779 733 c 256
 779 939 630 1066 456 1066 c 256
 281 1066 127 935 127 728 c 256
 127 522 275 395 450 395 c 256
EndSplineSet
EndChar

StartChar: c
Encoding: 67 99 164
Width: 1088
VWidth: 0
GlyphClass: 2
Flags: W
PickledData: "(dp1
S'org.pippin.gimp.org.kernagic'
p2
(dp3
S'lstem'
p4
I0
sS'rstem'
p5
I696
ssS'com.typemytype.robofont.guides'
p6
((dp7
S'y'
I417
sS'x'
I962
sS'magnetic'
p8
I5
sS'angle'
p9
F90
sS'isGlobal'
p10
I00
s(dp11
S'y'
I1020
sS'x'
I565
sg8
I5
sg9
F90
sg10
I00
s(dp12
S'y'
I994
sS'x'
I572
sg8
I5
sg9
F90
sg10
I00
stp13
sS'com.typemytype.robofont.layerData'
p14
(dp15
sS'com.fontlab.hintData'
p16
(dp17
S'vhints'
p18
((dp19
S'position'
p20
I128
sS'width'
p21
I120
stp22
sS'hhints'
p23
((dp24
g20
I-19
sg21
I92
s(dp25
g20
I982
sg21
I92
stp26
ssS'org.robofab.postScriptHintData'
p27
(dp28
s."
HStem: -19 92 982 92
VStem: 128 120
AnchorPoint: "bot" 607 1 basechar 0
AnchorPoint: "top" 619 1083 basechar 0
LayerCount: 2
Fore
SplineSet
863 289 m 257
 818 200 748 138 622 138 c 258
 620 138 l 258
 433 138 327 284 327 543 c 256
 327 802 434 948 622 948 c 256
 748 947 819 883 864 794 c 257
 877 794 l 257
 1011 869 l 257
 957 993 845 1105 613 1105 c 256
 303 1105 106 888 106 543 c 256
 106 197 303 -20 613 -20 c 256
 845 -20 958 92 1011 217 c 257
 876 289 l 257
 863 289 l 257
EndSplineSet
EndChar

StartChar: caron
Encoding: 399 711 166
Width: 911
VWidth: 0
GlyphClass: 4
Flags: W
PickledData: "(dp1
S'org.robofab.postScriptHintData'
p2
(dp3
sS'com.typemytype.robofont.layerData'
p4
(dp5
s."
AnchorPoint: "top" 448 1082 mark 0
LayerCount: 2
Fore
SplineSet
327 1245 m 257
 542 1245 l 257
 742 1602 l 257
 562 1602 l 257
 435 1378 l 257
 307 1602 l 257
 126 1602 l 257
 327 1245 l 257
EndSplineSet
EndChar

StartChar: caron.alt
Encoding: 65537 -1 167
Width: 710
VWidth: 0
GlyphClass: 4
Flags: W
PickledData: "(dp1
S'org.robofab.postScriptHintData'
p2
(dp3
sS'com.typemytype.robofont.layerData'
p4
(dp5
s."
AnchorPoint: "caron.alt" 177 1082 mark 0
LayerCount: 2
Fore
SplineSet
438 1151 m 257
 584 1151 l 257
 661 1546 l 257
 467 1546 l 257
 438 1151 l 257
EndSplineSet
EndChar

StartChar: cedilla
Encoding: 119 184 172
Width: 700
VWidth: 0
GlyphClass: 4
Flags: W
PickledData: "(dp1
S'org.robofab.postScriptHintData'
p2
(dp3
sS'com.typemytype.robofont.layerData'
p4
(dp5
s."
AnchorPoint: "bot" 424 13 mark 0
LayerCount: 2
Fore
SplineSet
373 -406 m 256
 516 -406 625 -329 625 -203 c 256
 625 -94 551 -39 456 -39 c 256
 422 -39 386 -46 349 -60 c 257
 349 -116 l 257
 368 -113 386 -111 401 -111 c 256
 482 -111 504 -156 504 -200 c 256
 504 -267 442 -305 363 -305 c 256
 327 -305 286 -297 245 -280 c 257
 212 -371 l 257
 263 -394 318 -406 373 -406 c 256
EndSplineSet
EndChar

StartChar: cent
Encoding: 97 162 173
Width: 1088
VWidth: 0
GlyphClass: 2
Flags: W
PickledData: "(dp1
S'org.pippin.gimp.org.kernagic'
p2
(dp3
S'lstem'
p4
I0
sS'rstem'
p5
I0
ssS'com.typemytype.robofont.layerData'
p6
(dp7
sS'org.robofab.postScriptHintData'
p8
(dp9
s."
LayerCount: 2
Fore
SplineSet
544 39 m 257
 542 -307 l 257
 662 -307 l 257
 677 39 l 257
 544 39 l 257
553 1383 m 257
 543 1055 l 257
 669 1055 l 257
 674 1383 l 257
 553 1383 l 257
EndSplineSet
Refer: 164 99 N 1 0 0 1 0 0 2
EndChar

StartChar: circumflex
Encoding: 398 710 174
Width: 895
VWidth: 0
GlyphClass: 4
Flags: W
PickledData: "(dp1
S'org.robofab.postScriptHintData'
p2
(dp3
sS'com.typemytype.robofont.layerData'
p4
(dp5
s."
AnchorPoint: "top" 437 1082 mark 0
LayerCount: 2
Fore
SplineSet
125 1262 m 257
 306 1262 l 257
 433 1486 l 257
 561 1262 l 257
 741 1262 l 257
 541 1619 l 257
 325 1619 l 257
 125 1262 l 257
EndSplineSet
EndChar

StartChar: colon
Encoding: 26 58 175
Width: 668
VWidth: 0
GlyphClass: 2
Flags: W
PickledData: "(dp1
S'org.pippin.gimp.org.kernagic'
p2
(dp3
S'lstem'
p4
I0
sS'rstem'
p5
I0
ssS'com.typemytype.robofont.layerData'
p6
(dp7
S'b'
(dp8
S'name'
p9
S'colon'
p10
sS'lib'
p11
(dp12
sS'unicodes'
p13
(tsS'width'
p14
I653
sS'contours'
p15
(tsS'components'
p16
(tsS'anchors'
p17
(tsssS'org.robofab.postScriptHintData'
p18
(dp19
s."
LayerCount: 2
Fore
SplineSet
333 -9 m 256
 418 -9 465 49 465 124 c 256
 465 198 418 259 333 259 c 256
 247 259 198 198 198 124 c 256
 198 49 248 -9 333 -9 c 256
333 824 m 256
 418 824 465 882 465 957 c 256
 465 1031 418 1092 333 1092 c 256
 247 1092 198 1031 198 957 c 256
 198 882 248 824 333 824 c 256
EndSplineSet
EndChar

StartChar: comma
Encoding: 12 44 176
Width: 639
VWidth: 0
GlyphClass: 2
Flags: W
PickledData: "(dp1
S'org.pippin.gimp.org.kernagic'
p2
(dp3
S'lstem'
p4
I0
sS'rstem'
p5
I0
ssS'com.typemytype.robofont.layerData'
p6
(dp7
sS'org.robofab.postScriptHintData'
p8
(dp9
s."
LayerCount: 2
Fore
SplineSet
192 -314 m 257
 319 -314 l 257
 438 139 l 257
 438 248 l 257
 231 248 l 257
 231 230 192 -314 192 -314 c 257
EndSplineSet
EndChar

StartChar: uni0326
Encoding: 411 806 177
Width: 613
VWidth: 0
Flags: W
PickledData: "(dp1
S'org.robofab.postScriptHintData'
p2
(dp3
s."
AnchorPoint: "bot" 332 0 mark 0
LayerCount: 2
Fore
SplineSet
180 -529 m 257
 322 -529 l 257
 322 -529 431 -162 429 -128 c 257
 234 -128 l 257
 234 -184 180 -529 180 -529 c 257
EndSplineSet
EndChar

StartChar: uni0312
Encoding: 410 786 178
Width: 600
VWidth: 0
Flags: W
PickledData: "(dp1
S'org.robofab.postScriptHintData'
p2
(dp3
s."
AnchorPoint: "top" 295 1069 mark 0
LayerCount: 2
Fore
SplineSet
187 1302 m 257
 182 1281 l 257
 399 1281 l 257
 399 1337 438 1785 438 1785 c 257
 300 1785 l 257
 300 1785 187 1339 187 1302 c 257
EndSplineSet
EndChar

StartChar: copyright
Encoding: 104 169 179
Width: 1728
VWidth: 0
GlyphClass: 2
Flags: W
PickledData: "(dp1
S'org.pippin.gimp.org.kernagic'
p2
(dp3
S'lstem'
p4
I0
sS'rstem'
p5
I0
ssS'com.typemytype.robofont.layerData'
p6
(dp7
sS'org.robofab.postScriptHintData'
p8
(dp9
s."
LayerCount: 2
Fore
SplineSet
790 -30 m 256
 1186 -30 1561 250 1561 728 c 256
 1561 1207 1185 1486 790 1486 c 256
 397 1486 29 1207 29 728 c 256
 29 250 397 -30 790 -30 c 256
790 75 m 256
 455 75 147 317 147 728 c 256
 147 1138 455 1379 790 1379 c 256
 1126 1379 1437 1138 1437 728 c 256
 1437 318 1126 75 790 75 c 256
810 239 m 256
 910 239 1008 266 1094 320 c 257
 1056 416 l 257
 973 366 895 348 817 348 c 256
 626 348 474 490 474 732 c 256
 474 960 625 1108 811 1108 c 256
 883 1108 973 1084 1047 1035 c 257
 1091 1132 l 257
 1004 1189 906 1218 804 1218 c 256
 552 1218 333 1021 333 729 c 256
 333 430 556 239 810 239 c 256
EndSplineSet
EndChar

StartChar: currency
Encoding: 99 164 180
Width: 1149
VWidth: 0
GlyphClass: 2
Flags: W
PickledData: "(dp1
S'org.pippin.gimp.org.kernagic'
p2
(dp3
S'lstem'
p4
I0
sS'rstem'
p5
I0
ssS'com.typemytype.robofont.layerData'
p6
(dp7
S'b'
(dp8
S'name'
p9
S'currency'
p10
sS'lib'
p11
(dp12
sS'unicodes'
p13
(tsS'width'
p14
I1164
sS'contours'
p15
(tsS'components'
p16
(tsS'anchors'
p17
(tsssS'org.robofab.postScriptHintData'
p18
(dp19
s."
LayerCount: 2
Fore
SplineSet
865 726 m 256
 865 560 749 422 573 422 c 256
 400 422 282 560 282 726 c 256
 282 892 400 1033 573 1033 c 256
 747 1033 865 892 865 726 c 256
826 1053 m 257
 756 1111 669 1144 573 1144 c 256
 478 1144 389 1111 319 1054 c 257
 141 1227 l 257
 64 1150 l 257
 245 972 l 257
 194 899 168 816 168 726 c 256
 168 636 195 552 245 481 c 257
 65 305 l 257
 141 227 l 257
 319 400 l 257
 390 342 476 311 573 311 c 256
 669 311 756 343 826 400 c 257
 1007 226 l 257
 1079 305 l 257
 902 481 l 257
 952 552 978 635 978 726 c 256
 978 815 951 898 901 972 c 257
 1080 1148 l 257
 1007 1227 l 257
 826 1053 l 257
EndSplineSet
EndChar

StartChar: d
Encoding: 68 100 181
Width: 1216
VWidth: 0
GlyphClass: 2
Flags: W
PickledData: "(dp1
S'org.pippin.gimp.org.kernagic'
p2
(dp3
S'lstem'
p4
I0
sS'rstem'
p5
I0
ssS'com.typemytype.robofont.layerData'
p6
(dp7
sS'com.fontlab.hintData'
p8
(dp9
S'vhints'
p10
((dp11
S'position'
p12
I114
sS'width'
p13
I166
s(dp14
g12
I907
sg13
I161
s(dp15
g12
I930
sg13
I138
stp16
sS'hhints'
p17
((dp18
g12
I-19
sg13
I127
s(dp19
g12
I953
sg13
I127
stp20
ssS'org.robofab.postScriptHintData'
p21
(dp22
s."
HStem: -19 127 953 127
VStem: 114 166 907 161 930 138
AnchorPoint: "mid" 958 1307 basechar 0
AnchorPoint: "caron.alt" 1109 1180 basechar 0
AnchorPoint: "top" 518 1082 basechar 0
LayerCount: 2
Fore
SplineSet
600 134 m 256
 420 134 329 275 329 544 c 256
 329 814 425 951 602 951 c 256
 712 951 803 908 855 835 c 257
 855 245 l 257
 797 171 706 134 600 134 c 256
567 -20 m 256
 688 -20 801 37 872 134 c 257
 882 0 l 257
 1071 0 l 257
 1071 1560 l 257
 850 1540 l 257
 850 1150 l 257
 855 989 l 257
 796 1054 704 1103 577 1103 c 258
 572 1103 l 257
 568 1103 l 258
 275 1103 107 879 107 542 c 256
 107 212 266 -20 567 -20 c 256
EndSplineSet
EndChar

StartChar: dagger
Encoding: 452 8224 182
Width: 1080
VWidth: 0
GlyphClass: 2
Flags: W
PickledData: "(dp1
S'org.pippin.gimp.org.kernagic'
p2
(dp3
S'lstem'
p4
I0
sS'rstem'
p5
I0
ssS'com.typemytype.robofont.layerData'
p6
(dp7
S'b'
(dp8
S'name'
p9
S'dagger'
p10
sS'lib'
p11
(dp12
sS'unicodes'
p13
(tsS'width'
p14
I1050
sS'contours'
p15
(tsS'components'
p16
(tsS'anchors'
p17
(tsssS'org.robofab.postScriptHintData'
p18
(dp19
s."
LayerCount: 2
Fore
SplineSet
452 1485 m 257
 452 1104 l 257
 160 1104 l 257
 160 974 l 257
 452 974 l 257
 452 56 l 257
 619 56 l 257
 619 974 l 257
 920 974 l 257
 920 1104 l 257
 620 1104 l 257
 620 1485 l 257
 452 1485 l 257
EndSplineSet
EndChar

StartChar: daggerdbl
Encoding: 453 8225 183
Width: 1052
VWidth: 0
GlyphClass: 2
Flags: W
PickledData: "(dp1
S'org.pippin.gimp.org.kernagic'
p2
(dp3
S'lstem'
p4
I0
sS'rstem'
p5
I0
ssS'com.typemytype.robofont.layerData'
p6
(dp7
S'b'
(dp8
S'name'
p9
S'daggerdbl'
p10
sS'lib'
p11
(dp12
sS'unicodes'
p13
(tsS'width'
p14
I1022
sS'contours'
p15
(tsS'components'
p16
(tsS'anchors'
p17
(tsssS'org.robofab.postScriptHintData'
p18
(dp19
s."
LayerCount: 2
Fore
SplineSet
449 1470 m 257
 449 1088 l 257
 165 1088 l 257
 165 959 l 257
 449 959 l 257
 449 553 l 257
 165 553 l 257
 165 428 l 257
 449 428 l 257
 449 15 l 257
 618 15 l 257
 618 428 l 257
 904 428 l 257
 904 553 l 257
 620 553 l 257
 620 959 l 257
 905 959 l 257
 905 1088 l 257
 617 1088 l 257
 617 1470 l 257
 449 1470 l 257
EndSplineSet
EndChar

StartChar: uni030F
Encoding: 408 783 184
Width: 934
VWidth: 0
Flags: W
PickledData: "(dp1
S'org.robofab.postScriptHintData'
p2
(dp3
sS'com.typemytype.robofont.layerData'
p4
(dp5
s."
AnchorPoint: "top" 503 1069 mark 0
LayerCount: 2
Fore
SplineSet
586 1250 m 257
 709 1250 l 257
 572 1611 l 257
 385 1611 l 257
 586 1250 l 257
292 1250 m 257
 411 1250 l 257
 263 1611 l 257
 56 1611 l 257
 292 1250 l 257
EndSplineSet
EndChar

StartChar: degree
Encoding: 111 176 187
Width: 866
VWidth: 0
GlyphClass: 2
Flags: W
PickledData: "(dp1
S'org.pippin.gimp.org.kernagic'
p2
(dp3
S'lstem'
p4
I0
sS'rstem'
p5
I0
ssS'com.typemytype.robofont.layerData'
p6
(dp7
sS'org.robofab.postScriptHintData'
p8
(dp9
s."
LayerCount: 2
Fore
SplineSet
428 892 m 256
 603 892 733 1027 733 1192 c 256
 733 1362 599 1486 428 1486 c 256
 258 1486 124 1362 124 1192 c 256
 124 1021 257 892 428 892 c 256
428 1005 m 256
 330 1005 250 1078 250 1191 c 256
 250 1302 332 1375 429 1375 c 256
 526 1375 607 1302 607 1191 c 256
 607 1078 526 1005 428 1005 c 256
EndSplineSet
EndChar

StartChar: dieresis
Encoding: 103 168 188
Width: 969
VWidth: 0
GlyphClass: 4
Flags: W
PickledData: "(dp1
S'org.robofab.postScriptHintData'
p2
(dp3
sS'com.typemytype.robofont.layerData'
p4
(dp5
s."
AnchorPoint: "top" 481 1082 mark 0
LayerCount: 2
Fore
SplineSet
699 1277 m 256
 777 1277 815 1327 815 1395 c 256
 815 1464 777 1515 699 1515 c 256
 620 1515 581 1464 581 1395 c 256
 581 1328 620 1277 699 1277 c 256
248 1277 m 256
 326 1277 364 1328 364 1395 c 256
 364 1464 326 1515 248 1515 c 256
 168 1515 130 1464 130 1395 c 256
 130 1328 169 1277 248 1277 c 256
EndSplineSet
EndChar

StartChar: divide
Encoding: 182 247 189
Width: 1194
VWidth: 0
GlyphClass: 2
Flags: W
PickledData: "(dp1
S'org.pippin.gimp.org.kernagic'
p2
(dp3
S'lstem'
p4
I0
sS'rstem'
p5
I0
ssS'com.typemytype.robofont.layerData'
p6
(dp7
sS'org.robofab.postScriptHintData'
p8
(dp9
s."
LayerCount: 2
Fore
SplineSet
484 1114 m 257
 484 890 l 257
 706 890 l 257
 706 1114 l 257
 484 1114 l 257
484 259 m 257
 484 28 l 257
 702 28 l 257
 702 259 l 257
 484 259 l 257
99 661 m 257
 99 502 l 257
 1086 502 l 257
 1086 661 l 257
 99 661 l 257
EndSplineSet
EndChar

StartChar: dollar
Encoding: 4 36 190
Width: 1223
VWidth: 0
GlyphClass: 2
Flags: W
PickledData: "(dp1
S'org.pippin.gimp.org.kernagic'
p2
(dp3
S'lstem'
p4
I0
sS'rstem'
p5
I0
ssS'com.typemytype.robofont.layerData'
p6
(dp7
S'b'
(dp8
S'name'
p9
S'dollar'
p10
sS'lib'
p11
(dp12
sS'unicodes'
p13
(tsS'width'
p14
I1221
sS'contours'
p15
(tsS'components'
p16
(tsS'anchors'
p17
(tsssS'org.robofab.postScriptHintData'
p18
(dp19
s."
LayerCount: 2
Fore
SplineSet
545 46 m 257
 545 -293 l 257
 677 -293 l 257
 686 46 l 257
 545 46 l 257
556 1767 m 257
 543 1429 l 257
 690 1429 l 257
 690 1767 l 257
 556 1767 l 257
EndSplineSet
Refer: 92 83 N 1 0 0 1 0 0 2
EndChar

StartChar: dotaccent
Encoding: 402 729 191
Width: 490
VWidth: 0
GlyphClass: 4
Flags: W
PickledData: "(dp1
S'org.robofab.postScriptHintData'
p2
(dp3
sS'com.typemytype.robofont.layerData'
p4
(dp5
s."
AnchorPoint: "top" 244 1082 mark 0
LayerCount: 2
Fore
SplineSet
392 1436 m 256
 392 1520 338 1573 246 1573 c 256
 153 1573 99 1520 99 1436 c 256
 99 1349 153 1295 246 1295 c 256
 338 1295 392 1349 392 1436 c 256
EndSplineSet
EndChar

StartChar: dotlessi
Encoding: 240 305 192
Width: 545
VWidth: 0
GlyphClass: 2
Flags: W
PickledData: "(dp1
S'org.pippin.gimp.org.kernagic'
p2
(dp3
S'lstem'
p4
I0
sS'rstem'
p5
I0
ssS'com.typemytype.robofont.layerData'
p6
(dp7
sS'org.robofab.postScriptHintData'
p8
(dp9
s."
AnchorPoint: "ogonek" 294 0 basechar 0
AnchorPoint: "top" 287 1082 basechar 0
LayerCount: 2
Fore
SplineSet
173 1082 m 257
 173 0 l 257
 391 0 l 257
 391 1082 l 257
 173 1082 l 257
EndSplineSet
EndChar

StartChar: uni0237
Encoding: 396 567 193
Width: 617
VWidth: 0
GlyphClass: 2
Flags: W
PickledData: "(dp1
S'org.pippin.gimp.org.kernagic'
p2
(dp3
S'lstem'
p4
I0
sS'rstem'
p5
I0
ssS'com.typemytype.robofont.layerData'
p6
(dp7
sS'com.fontlab.hintData'
p8
(dp9
S'vhints'
p10
((dp11
S'position'
p12
I111
sS'width'
p13
I142
stp14
sS'hhints'
p15
((dp16
g12
I-479
sg13
I112
stp17
ssS'org.robofab.postScriptHintData'
p18
(dp19
s."
HStem: -479 112
VStem: 111 142
AnchorPoint: "top" 346 1081 basechar 0
LayerCount: 2
Fore
SplineSet
232 1082 m 257
 232 16 l 258
 232 -163 224 -201 70 -244 c 258
 -1 -264 l 257
 47 -430 l 257
 115 -414 l 257
 347 -362 449 -288 449 -16 c 258
 449 1082 l 257
 232 1082 l 257
EndSplineSet
EndChar

StartChar: e
Encoding: 69 101 194
Width: 1148
VWidth: 0
GlyphClass: 2
Flags: W
PickledData: "(dp1
S'org.pippin.gimp.org.kernagic'
p2
(dp3
S'lstem'
p4
I0
sS'rstem'
p5
I747
ssS'com.typemytype.robofont.layerData'
p6
(dp7
sS'com.fontlab.hintData'
p8
(dp9
S'hhints'
p10
((dp11
S'position'
p12
I-19
sS'width'
p13
I94
s(dp14
g12
I982
sg13
I92
stp15
ssS'org.robofab.postScriptHintData'
p16
(dp17
s."
HStem: -19 94 982 92
AnchorPoint: "bot" 631 1 basechar 0
AnchorPoint: "ogonek" 885 41 basechar 0
AnchorPoint: "top" 620 1082 basechar 0
LayerCount: 2
Fore
SplineSet
330 626 m 257
 347 832 460 952 622 952 c 256
 783 952 859 837 861 626 c 257
 330 626 l 257
1036 494 m 257
 1036 494 1046 567 1046 607 c 256
 1046 911 894 1105 612 1105 c 256
 327 1105 106 896 106 539 c 256
 106 192 332 -20 637 -20 c 256
 796 -20 931 27 1019 92 c 257
 970 224 l 257
 957 224 l 257
 868 173 785 134 664 134 c 256
 480 134 343 244 327 494 c 257
 1036 494 l 257
EndSplineSet
EndChar

StartChar: eight
Encoding: 24 56 202
Width: 1284
VWidth: 0
GlyphClass: 2
Flags: W
PickledData: "(dp1
S'org.pippin.gimp.org.kernagic'
p2
(dp3
S'lstem'
p4
I0
sS'rstem'
p5
I0
ssS'com.typemytype.robofont.layerData'
p6
(dp7
sS'org.robofab.postScriptHintData'
p8
(dp9
s."
LayerCount: 2
Fore
SplineSet
643 823 m 257
 479 866 391 965 391 1112 c 256
 391 1245 492 1324 643 1324 c 256
 794 1324 892 1246 892 1112 c 256
 892 966 808 866 643 823 c 257
643 137 m 256
 460 137 365 222 365 386 c 256
 365 554 484 656 643 695 c 257
 803 656 917 550 917 387 c 256
 917 218 831 137 643 137 c 256
643 -20 m 256
 925 -20 1135 111 1135 371 c 256
 1135 563 1025 709 852 769 c 257
 1004 826 1105 935 1105 1114 c 256
 1105 1349 912 1476 643 1476 c 256
 375 1476 178 1349 178 1114 c 256
 178 933 288 818 438 767 c 257
 257 703 148 573 148 371 c 256
 148 111 362 -20 643 -20 c 256
EndSplineSet
EndChar

StartChar: emdash
Encoding: 445 8212 205
Width: 2151
VWidth: 0
GlyphClass: 2
Flags: W
PickledData: "(dp1
S'org.robofab.postScriptHintData'
p2
(dp3
sS'com.typemytype.robofont.layerData'
p4
(dp5
s."
LayerCount: 2
Fore
SplineSet
60 502 m 257
 2091 502 l 257
 2091 659 l 257
 60 659 l 257
 60 502 l 257
EndSplineSet
EndChar

StartChar: endash
Encoding: 444 8211 206
Width: 1290
VWidth: 0
GlyphClass: 2
Flags: W
PickledData: "(dp1
S'org.pippin.gimp.org.kernagic'
p2
(dp3
S'lstem'
p4
I0
sS'rstem'
p5
I0
ssS'com.typemytype.robofont.layerData'
p6
(dp7
sS'org.robofab.postScriptHintData'
p8
(dp9
s."
LayerCount: 2
Fore
SplineSet
85 506 m 257
 1205 506 l 257
 1205 656 l 257
 85 656 l 257
 85 506 l 257
EndSplineSet
EndChar

StartChar: eng
Encoding: 266 331 207
Width: 1206
VWidth: 0
GlyphClass: 2
Flags: W
PickledData: "(dp1
S'org.robofab.postScriptHintData'
p2
(dp3
sS'com.typemytype.robofont.layerData'
p4
(dp5
s."
LayerCount: 2
Fore
SplineSet
857 137 m 257
 857 -12 l 257
 856 -231 821 -290 480 -290 c 257
 487 -448 l 257
 934 -444 1074 -347 1074 -23 c 258
 1074 137 l 257
 857 137 l 257
EndSplineSet
Refer: 275 110 N 1 0 0 1 0 0 2
EndChar

StartChar: equal
Encoding: 29 61 209
Width: 1110
VWidth: 0
GlyphClass: 2
Flags: W
PickledData: "(dp1
S'org.pippin.gimp.org.kernagic'
p2
(dp3
S'lstem'
p4
I0
sS'rstem'
p5
I0
ssS'com.typemytype.robofont.layerData'
p6
(dp7
S'b'
(dp8
S'name'
p9
S'equal'
p10
sS'lib'
p11
(dp12
sS'unicodes'
p13
(tsS'width'
p14
I1050
sS'contours'
p15
(tsS'components'
p16
(tsS'anchors'
p17
(tsssS'org.robofab.postScriptHintData'
p18
(dp19
s."
LayerCount: 2
Fore
SplineSet
121 598 m 257
 121 431 l 257
 988 431 l 257
 988 598 l 257
 121 598 l 257
121 994 m 257
 121 827 l 257
 988 827 l 257
 988 994 l 257
 121 994 l 257
EndSplineSet
EndChar

StartChar: estimated
Encoding: 465 8494 210
Width: 1207
VWidth: 0
GlyphClass: 2
Flags: W
PickledData: "(dp1
S'org.robofab.postScriptHintData'
p2
(dp3
sS'com.typemytype.robofont.layerData'
p4
(dp5
S'b'
(dp6
S'name'
p7
S'estimated'
p8
sS'lib'
p9
(dp10
sS'unicodes'
p11
(tsS'width'
p12
I1223
sS'contours'
p13
(tsS'components'
p14
(tsS'anchors'
p15
(tsss."
LayerCount: 2
Fore
SplineSet
985 597 m 257
 326 597 l 257
 341 857 479 1034 650 1034 c 256
 858 1034 985 831 985 597 c 257
95 537 m 256
 95 220 282 -20 662 -20 c 256
 868 -20 1002 69 1101 187 c 257
 1050 238 l 257
 952 133 841 53 662 53 c 256
 434 53 325 243 324 517 c 257
 1109 517 l 257
 1109 863 962 1094 644 1094 c 256
 324 1094 95 855 95 537 c 256
EndSplineSet
EndChar

StartChar: eth
Encoding: 175 240 211
Width: 1206
VWidth: 0
GlyphClass: 2
Flags: W
PickledData: "(dp1
S'org.pippin.gimp.org.kernagic'
p2
(dp3
S'lstem'
p4
I0
sS'rstem'
p5
I0
ssS'com.typemytype.robofont.layerData'
p6
(dp7
sS'org.robofab.postScriptHintData'
p8
(dp9
s."
LayerCount: 2
Fore
SplineSet
926 491 m 256
 926 275 815 134 604 134 c 256
 388 134 279 300 279 486 c 256
 279 683 395 826 598 826 c 256
 809 826 926 670 926 491 c 256
210 1560 m 257
 422 1355 l 257
 214 1272 l 257
 267 1140 l 257
 518 1239 l 257
 657 1101 758 973 808 887 c 257
 755 923 690 969 574 969 c 256
 290 969 92 776 92 486 c 256
 92 210 277 -21 598 -21 c 256
 926 -21 1102 189 1102 485 c 256
 1101 625 1066 763 1012 865 c 256
 942 995 840 1122 673 1306 c 257
 911 1399 l 257
 857 1530 l 257
 575 1419 l 257
 434 1560 l 257
 210 1560 l 257
EndSplineSet
EndChar

StartChar: exclam
Encoding: 1 33 212
Width: 725
VWidth: 0
GlyphClass: 2
Flags: W
PickledData: "(dp1
S'org.pippin.gimp.org.kernagic'
p2
(dp3
S'lstem'
p4
I0
sS'rstem'
p5
I0
ssS'com.typemytype.robofont.layerData'
p6
(dp7
sS'org.robofab.postScriptHintData'
p8
(dp9
s."
LayerCount: 2
Fore
SplineSet
354 -12 m 256
 437 -12 482 52 482 120 c 256
 482 186 437 250 354 250 c 256
 271 250 226 186 226 120 c 256
 226 53 271 -12 354 -12 c 256
314 440 m 257
 397 440 l 257
 452 1331 l 257
 452 1487 l 257
 253 1487 l 257
 253 1331 l 257
 314 440 l 257
EndSplineSet
EndChar

StartChar: f
Encoding: 70 102 214
Width: 777
VWidth: 0
GlyphClass: 2
Flags: W
PickledData: "(dp1
S'org.pippin.gimp.org.kernagic'
p2
(dp3
S'lstem'
p4
I182
sS'rstem'
p5
I417
ssS'com.typemytype.robofont.layerData'
p6
(dp7
sS'com.fontlab.hintData'
p8
(dp9
S'vhints'
p10
((dp11
S'position'
p12
I269
sS'width'
p13
I166
stp14
sS'hhints'
p15
((dp16
g12
I952
sg13
I89
s(dp17
g12
I1358
sg13
I122
stp18
ssS'org.robofab.postScriptHintData'
p19
(dp20
s."
HStem: 952 89 1358 122
VStem: 269 166
AnchorPoint: "top" 405 1456 basechar 0
LayerCount: 2
Fore
SplineSet
459 1082 m 257
 459 1161 l 258
 459 1325 498 1365 631 1365 c 256
 666 1365 725 1359 743 1357 c 257
 754 1498 l 257
 746 1500 675 1518 577 1518 c 258
 567 1518 l 258
 367 1518 241 1456 241 1161 c 258
 241 1079 l 257
 66 1063 l 257
 61 952 l 257
 241 952 l 257
 241 0 l 257
 459 0 l 257
 459 952 l 257
 731 952 l 257
 731 1082 l 257
 459 1082 l 257
EndSplineSet
EndChar

StartChar: five
Encoding: 21 53 215
Width: 1284
VWidth: 0
GlyphClass: 2
Flags: W
PickledData: "(dp1
S'org.pippin.gimp.org.kernagic'
p2
(dp3
S'lstem'
p4
I0
sS'rstem'
p5
I0
ssS'com.typemytype.robofont.layerData'
p6
(dp7
sS'org.robofab.postScriptHintData'
p8
(dp9
s."
LayerCount: 2
Fore
SplineSet
669 783 m 256
 839 783 930 633 930 476 c 256
 930 308 834 158 631 158 c 256
 493 158 389 210 313 319 c 257
 297 319 l 257
 178 200 l 257
 247 88 407 -20 640 -20 c 256
 983 -20 1151 223 1151 475 c 256
 1151 707 1004 941 705 941 c 256
 595 941 513 906 446 846 c 257
 492 1292 l 257
 1044 1292 l 257
 1066 1456 l 257
 299 1456 l 257
 249 686 l 257
 420 658 l 257
 474 740 563 783 669 783 c 256
EndSplineSet
EndChar

StartChar: florin
Encoding: 318 402 217
Width: 1068
VWidth: 0
GlyphClass: 2
Flags: W
PickledData: "(dp1
S'org.robofab.postScriptHintData'
p2
(dp3
s."
LayerCount: 2
Fore
SplineSet
531 1250 m 258
 498 1066 l 257
 319 1066 l 257
 302 985 l 257
 485 985 l 257
 294 117 l 257
 256 -71 261 -193 96 -193 c 256
 67 -193 32 -189 -9 -181 c 257
 -31 -275 l 257
 16 -290 61 -298 104 -298 c 256
 288 -298 429 -159 488 120 c 257
 679 985 l 257
 923 985 l 257
 939 1066 l 257
 696 1066 l 257
 734 1274 l 258
 756 1390 792 1477 892 1477 c 256
 967 1477 993 1413 998 1303 c 257
 1137 1303 l 257
 1134 1508 1033 1588 879 1588 c 256
 676 1588 568 1452 531 1250 c 258
EndSplineSet
EndChar

StartChar: foundryicon
Encoding: 488 -1 218
Width: 1347
VWidth: 0
GlyphClass: 2
Flags: W
PickledData: "(dp1
S'org.robofab.postScriptHintData'
p2
(dp3
s."
LayerCount: 2
Fore
SplineSet
280 2 m 257
 669 278 l 257
 1066 2 l 257
 922 461 l 257
 1313 755 l 257
 828 755 l 257
 669 1215 l 257
 519 755 l 257
 34 755 l 257
 423 461 l 257
 280 2 l 257
485 405 m 257
 485 672 l 257
 591 672 l 257
 761 523 l 257
 761 672 l 257
 867 672 l 257
 867 405 l 257
 761 405 l 257
 591 552 l 257
 591 405 l 257
 485 405 l 257
EndSplineSet
EndChar

StartChar: four
Encoding: 20 52 219
Width: 1284
VWidth: 0
GlyphClass: 2
Flags: W
PickledData: "(dp1
S'org.pippin.gimp.org.kernagic'
p2
(dp3
S'lstem'
p4
I0
sS'rstem'
p5
I0
ssS'com.typemytype.robofont.layerData'
p6
(dp7
sS'org.robofab.postScriptHintData'
p8
(dp9
s."
LayerCount: 2
Fore
SplineSet
327 525 m 257
 761 1210 l 257
 761 525 l 257
 327 525 l 257
762 0 m 257
 984 0 l 257
 984 363 l 257
 1153 363 l 257
 1166 527 l 257
 984 527 l 257
 984 1456 l 257
 736 1456 l 257
 126 523 l 257
 167 363 l 257
 762 363 l 257
 762 0 l 257
EndSplineSet
EndChar

StartChar: fraction
Encoding: 459 8260 220
Width: 1070
VWidth: 0
GlyphClass: 2
Flags: W
PickledData: "(dp1
S'org.robofab.postScriptHintData'
p2
(dp3
s."
LayerCount: 2
Fore
SplineSet
111 0 m 257
 275 0 l 257
 1002 1488 l 257
 839 1488 l 257
 111 0 l 257
EndSplineSet
EndChar

StartChar: g
Encoding: 71 103 221
Width: 1216
VWidth: 0
GlyphClass: 2
Flags: W
PickledData: "(dp1
S'org.pippin.gimp.org.kernagic'
p2
(dp3
S'lstem'
p4
I0
sS'rstem'
p5
I0
ssS'com.typemytype.robofont.layerData'
p6
(dp7
sS'com.fontlab.hintData'
p8
(dp9
S'vhints'
p10
((dp11
S'position'
p12
I128
sS'width'
p13
I122
s(dp14
g12
I977
sg13
I125
s(dp15
g12
I977
sg13
I36
stp16
sS'hhints'
p17
((dp18
g12
I-426
sg13
I101
s(dp19
g12
I0
sg13
I93
s(dp20
g12
I982
sg13
I92
stp21
ssS'org.robofab.postScriptHintData'
p22
(dp23
s."
HStem: -426 101 0 93 982 92
VStem: 128 122 977 125 977 36
AnchorPoint: "top" 598 1082 basechar 0
LayerCount: 2
Fore
SplineSet
601 134 m 256
 417 134 327 283 327 550 c 256
 327 815 428 951 601 951 c 256
 712 951 792 911 854 829 c 257
 854 239 l 257
 800 170 705 134 601 134 c 256
564 -492 m 256
 906 -492 1064 -321 1064 39 c 258
 1064 1082 l 257
 870 1082 l 257
 864 976 l 257
 805 1048 710 1105 575 1105 c 256
 302 1105 106 902 106 549 c 256
 106 177 294 -15 570 -15 c 258
 572 -15 l 258
 681 -15 787 19 859 95 c 257
 862 14 l 257
 862 -5 l 258
 862 -254 746 -332 550 -333 c 256
 459 -333 350 -313 264 -279 c 257
 240 -279 l 257
 223 -438 l 257
 314 -469 437 -492 564 -492 c 256
EndSplineSet
EndChar

StartChar: germandbls
Encoding: 158 223 227
Width: 1294
VWidth: 0
GlyphClass: 2
Flags: W
PickledData: "(dp1
S'org.pippin.gimp.org.kernagic'
p2
(dp3
S'lstem'
p4
I0
sS'rstem'
p5
I0
ssS'com.typemytype.robofont.layerData'
p6
(dp7
S'b'
(dp8
S'name'
p9
S'germandbls'
p10
sS'lib'
p11
(dp12
sS'unicodes'
p13
(tsS'width'
p14
I1278
sS'contours'
p15
(tsS'components'
p16
(tsS'anchors'
p17
(tsssS'org.robofab.postScriptHintData'
p18
(dp19
s."
LayerCount: 2
Fore
SplineSet
864 -20 m 256
 1083 -20 1205 103 1205 303 c 256
 1205 607 817 706 817 806 c 256
 817 887 1028 988 1028 1207 c 256
 1028 1412 864 1536 626 1536 c 256
 327 1536 156 1357 156 1063 c 258
 156 1 l 257
 373 1 l 257
 373 1054 l 258
 373 1277 463 1373 635 1373 c 256
 758 1373 824 1310 824 1207 c 256
 824 1011 630 957 630 787 c 256
 630 591 984 510 984 303 c 256
 984 214 933 144 821 144 c 256
 723 144 620 179 570 206 c 257
 520 56 l 257
 611 13 746 -20 864 -20 c 256
EndSplineSet
EndChar

StartChar: grave
Encoding: 64 96 228
Width: 959
VWidth: 0
GlyphClass: 4
Flags: W
PickledData: "(dp1
S'org.robofab.postScriptHintData'
p2
(dp3
sS'com.typemytype.robofont.layerData'
p4
(dp5
s."
AnchorPoint: "top" 491 1069 mark 0
LayerCount: 2
Fore
SplineSet
408 1208 m 257
 544 1208 l 257
 352 1591 l 257
 94 1591 l 257
 408 1208 l 257
EndSplineSet
EndChar

StartChar: greater
Encoding: 30 62 229
Width: 1107
VWidth: 0
GlyphClass: 2
Flags: W
PickledData: "(dp1
S'org.pippin.gimp.org.kernagic'
p2
(dp3
S'lstem'
p4
I0
sS'rstem'
p5
I0
ssS'com.typemytype.robofont.layerData'
p6
(dp7
S'b'
(dp8
S'name'
p9
S'greater'
p10
sS'lib'
p11
(dp12
sS'unicodes'
p13
(tsS'width'
p14
I1107
sS'contours'
p15
(tsS'components'
p16
(tsS'anchors'
p17
(tsssS'org.robofab.postScriptHintData'
p18
(dp19
s."
LayerCount: 2
Fore
SplineSet
92 1036 m 257
 792 664 l 257
 91 329 l 257
 91 154 l 257
 1025 606 l 257
 1025 710 l 257
 92 1206 l 257
 92 1036 l 257
EndSplineSet
EndChar

StartChar: greaterequal
Encoding: 480 8805 230
Width: 1192
VWidth: 0
GlyphClass: 2
Flags: W
PickledData: "(dp1
S'org.pippin.gimp.org.kernagic'
p2
(dp3
S'lstem'
p4
I0
sS'rstem'
p5
I0
ssS'com.typemytype.robofont.layerData'
p6
(dp7
S'b'
(dp8
S'name'
p9
S'greaterequal'
p10
sS'lib'
p11
(dp12
sS'unicodes'
p13
(tsS'width'
p14
I1192
sS'contours'
p15
(tsS'components'
p16
(tsS'anchors'
p17
(tsssS'org.robofab.postScriptHintData'
p18
(dp19
s."
LayerCount: 2
Fore
SplineSet
131 7 m 257
 1064 7 l 257
 1064 147 l 257
 131 146 l 257
 131 7 l 257
154 230 m 257
 1049 710 l 257
 1049 804 l 257
 157 1308 l 257
 157 1145 l 257
 858 757 l 257
 154 393 l 257
 154 230 l 257
EndSplineSet
EndChar

StartChar: guillemotleft
Encoding: 106 171 231
Width: 1009
VWidth: 0
GlyphClass: 2
Flags: W
PickledData: "(dp1
S'org.pippin.gimp.org.kernagic'
p2
(dp3
S'lstem'
p4
I0
sS'rstem'
p5
I0
ssS'com.typemytype.robofont.layerData'
p6
(dp7
S'b'
(dp8
S'name'
p9
S'guillemotleft'
p10
sS'lib'
p11
(dp12
sS'unicodes'
p13
(tsS'width'
p14
I994
sS'contours'
p15
(tsS'components'
p16
(tsS'anchors'
p17
(tsssS'org.robofab.postScriptHintData'
p18
(dp19
s."
LayerCount: 2
Fore
SplineSet
741 143 m 257
 906 143 l 257
 637 558 l 257
 912 971 l 257
 743 971 l 257
 448 555 l 257
 741 143 l 257
366 143 m 257
 532 143 l 257
 263 558 l 257
 539 971 l 257
 370 971 l 257
 73 555 l 257
 366 143 l 257
EndSplineSet
EndChar

StartChar: guillemotright
Encoding: 122 187 232
Width: 1009
VWidth: 0
GlyphClass: 2
Flags: W
PickledData: "(dp1
S'org.pippin.gimp.org.kernagic'
p2
(dp3
S'lstem'
p4
I0
sS'rstem'
p5
I0
ssS'com.typemytype.robofont.layerData'
p6
(dp7
sS'org.robofab.postScriptHintData'
p8
(dp9
s."
LayerCount: 2
Fore
SplineSet
619 143 m 257
 915 558 l 257
 619 971 l 257
 453 971 l 257
 724 557 l 257
 454 143 l 257
 619 143 l 257
250 143 m 257
 544 558 l 257
 249 971 l 257
 82 971 l 257
 355 557 l 257
 83 143 l 257
 250 143 l 257
EndSplineSet
EndChar

StartChar: guilsinglleft
Encoding: 457 8249 233
Width: 687
VWidth: 0
GlyphClass: 2
Flags: W
PickledData: "(dp1
S'org.robofab.postScriptHintData'
p2
(dp3
s."
LayerCount: 2
Fore
SplineSet
400 154 m 257
 570 154 l 257
 298 564 l 257
 577 976 l 257
 405 976 l 257
 120 562 l 257
 400 154 l 257
EndSplineSet
EndChar

StartChar: guilsinglright
Encoding: 458 8250 234
Width: 766
VWidth: 0
GlyphClass: 2
Flags: W
PickledData: "(dp1
S'org.pippin.gimp.org.kernagic'
p2
(dp3
S'lstem'
p4
I0
sS'rstem'
p5
I0
ssS'com.typemytype.robofont.layerData'
p6
(dp7
S'b'
(dp8
S'name'
p9
S'guilsinglright'
p10
sS'lib'
p11
(dp12
sS'unicodes'
p13
(tsS'width'
p14
I766
sS'contours'
p15
(tsS'components'
p16
(tsS'anchors'
p17
(tsssS'org.robofab.postScriptHintData'
p18
(dp19
s."
LayerCount: 2
Fore
SplineSet
150 154 m 257
 320 154 l 257
 610 574 l 257
 321 999 l 257
 150 999 l 257
 425 574 l 257
 150 154 l 257
EndSplineSet
EndChar

StartChar: h
Encoding: 72 104 235
Width: 1222
VWidth: 0
GlyphClass: 2
Flags: W
PickledData: "(dp1
S'org.pippin.gimp.org.kernagic'
p2
(dp3
S'lstem'
p4
I0
sS'rstem'
p5
I0
ssS'com.typemytype.robofont.layerData'
p6
(dp7
sS'com.fontlab.hintData'
p8
(dp9
S'vhints'
p10
((dp11
S'position'
p12
I193
sS'width'
p13
I122
s(dp14
g12
I910
sg13
I122
stp15
sS'hhints'
p16
((dp17
g12
I982
sg13
I92
stp18
ssS'org.robofab.postScriptHintData'
p19
(dp20
s."
HStem: 982 92
VStem: 193 122 910 122
AnchorPoint: "mid" 293 1275 basechar 0
AnchorPoint: "top" 640 1422 basechar 0
LayerCount: 2
Fore
SplineSet
161 0 m 257
 378 0 l 257
 378 601 l 258
 378 787 452 951 662 951 c 256
 805 951 861 858 861 654 c 258
 861 0 l 257
 1080 0 l 257
 1080 671 l 258
 1080 946 956 1105 721 1105 c 256
 560 1105 440 1035 372 876 c 257
 379 1150 l 257
 379 1560 l 257
 161 1540 l 257
 161 0 l 257
EndSplineSet
EndChar

StartChar: hungarumlaut
Encoding: 406 733 238
Width: 847
VWidth: 0
GlyphClass: 4
Flags: W
PickledData: "(dp1
S'org.robofab.postScriptHintData'
p2
(dp3
sS'com.typemytype.robofont.layerData'
p4
(dp5
s."
AnchorPoint: "top" 358 1069 mark 0
LayerCount: 2
Fore
SplineSet
448 1250 m 257
 567 1250 l 257
 803 1611 l 257
 596 1611 l 257
 448 1250 l 257
150 1250 m 257
 273 1250 l 257
 474 1611 l 257
 287 1611 l 257
 150 1250 l 257
EndSplineSet
EndChar

StartChar: hyphen
Encoding: 13 45 239
Width: 882
VWidth: 0
GlyphClass: 4
Flags: W
PickledData: "(dp1
S'org.pippin.gimp.org.kernagic'
p2
(dp3
S'lstem'
p4
I0
sS'rstem'
p5
I0
ssS'com.typemytype.robofont.layerData'
p6
(dp7
sS'org.robofab.postScriptHintData'
p8
(dp9
s."
AnchorPoint: "mid" 423 592 mark 0
LayerCount: 2
Fore
SplineSet
166 504 m 257
 710 504 l 257
 710 662 l 257
 166 662 l 257
 166 504 l 257
EndSplineSet
EndChar

StartChar: infinity
Encoding: 475 8734 251
Width: 1684
VWidth: 0
GlyphClass: 2
Flags: W
PickledData: "(dp1
S'org.pippin.gimp.org.kernagic'
p2
(dp3
S'lstem'
p4
I0
sS'rstem'
p5
I0
ssS'com.typemytype.robofont.layerData'
p6
(dp7
S'b'
(dp8
S'name'
p9
S'infinity'
p10
sS'lib'
p11
(dp12
sS'unicodes'
p13
(tsS'width'
p14
I1647
sS'contours'
p15
(tsS'components'
p16
(tsS'anchors'
p17
(tsssS'org.robofab.postScriptHintData'
p18
(dp19
s."
LayerCount: 2
Fore
SplineSet
1461 663 m 256
 1461 513 1394 399 1252 399 c 256
 1137 399 1051 480 937 637 c 257
 1022 762 1124 873 1248 873 c 256
 1373 873 1461 776 1461 663 c 256
750 635 m 257
 661 505 554 399 435 399 c 256
 300 399 210 518 210 637 c 256
 210 765 293 873 428 873 c 256
 558 873 662 774 750 635 c 257
843 744 m 257
 722 909 597 1019 429 1019 c 256
 235 1019 80 859 80 658 c 256
 80 438 210 250 433 250 c 256
 597 250 725 363 843 523 c 257
 978 339 1101 250 1250 250 c 256
 1446 250 1600 410 1600 640 c 256
 1600 860 1475 1019 1252 1019 c 256
 1081 1019 956 904 843 744 c 257
EndSplineSet
EndChar

StartChar: integral
Encoding: 476 8747 252
Width: 925
VWidth: 0
GlyphClass: 2
Flags: W
PickledData: "(dp1
S'org.pippin.gimp.org.kernagic'
p2
(dp3
S'lstem'
p4
I0
sS'rstem'
p5
I0
ssS'com.typemytype.robofont.layerData'
p6
(dp7
S'b'
(dp8
S'name'
p9
S'integral'
p10
sS'lib'
p11
(dp12
sS'unicodes'
p13
(tsS'width'
p14
I994
sS'contours'
p15
(tsS'components'
p16
(tsS'anchors'
p17
(tsssS'org.robofab.postScriptHintData'
p18
(dp19
s."
LayerCount: 2
Fore
SplineSet
449 1163 m 258
 449 -41 l 258
 449 -210 413 -294 296 -294 c 256
 268 -294 235 -289 199 -280 c 257
 199 -420 l 257
 248 -431 292 -436 329 -436 c 256
 524 -436 614 -290 614 -33 c 258
 614 1172 l 258
 614 1332 640 1422 755 1422 c 256
 781 1422 810 1417 843 1408 c 257
 843 1532 l 257
 792 1544 747 1551 708 1551 c 256
 523 1551 449 1414 449 1163 c 258
EndSplineSet
EndChar

StartChar: k
Encoding: 75 107 257
Width: 1122
VWidth: 0
GlyphClass: 2
Flags: W
PickledData: "(dp1
S'org.pippin.gimp.org.kernagic'
p2
(dp3
S'lstem'
p4
I0
sS'rstem'
p5
I671
ssS'com.typemytype.robofont.layerData'
p6
(dp7
sS'org.robofab.postScriptHintData'
p8
(dp9
s."
AnchorPoint: "bot" 609 0 basechar 0
LayerCount: 2
Fore
SplineSet
161 0 m 257
 379 0 l 257
 379 404 l 257
 485 498 l 257
 873 0 l 257
 1101 0 l 257
 1101 26 l 257
 643 596 l 257
 1073 1060 l 257
 1073 1082 l 257
 833 1082 l 257
 373 581 l 257
 379 780 l 257
 379 1560 l 257
 161 1540 l 257
 161 0 l 257
EndSplineSet
EndChar

StartChar: kgreenlandic
Encoding: 247 312 259
Width: 1109
VWidth: 0
GlyphClass: 2
Flags: W
PickledData: "(dp1
S'org.robofab.postScriptHintData'
p2
(dp3
s."
LayerCount: 2
Fore
SplineSet
143 0 m 257
 337 0 l 257
 337 385 l 257
 451 489 l 257
 845 0 l 257
 1062 0 l 257
 1062 19 l 257
 594 588 l 257
 1031 1060 l 257
 1031 1082 l 257
 806 1082 l 257
 331 559 l 257
 337 780 l 257
 337 1082 l 257
 143 1082 l 257
 143 0 l 257
EndSplineSet
EndChar

StartChar: l
Encoding: 76 108 260
Width: 662
VWidth: 0
GlyphClass: 2
Flags: W
PickledData: "(dp1
S'org.pippin.gimp.org.kernagic'
p2
(dp3
S'lstem'
p4
I0
sS'rstem'
p5
I238
ssS'com.typemytype.robofont.layerData'
p6
(dp7
sS'com.fontlab.hintData'
p8
(dp9
S'vhints'
p10
((dp11
S'position'
p12
I193
sS'width'
p13
I122
stp14
sS'hhints'
p15
((dp16
g12
I-11
sg13
I87
stp17
ssS'org.robofab.postScriptHintData'
p18
(dp19
s."
HStem: -11 87
VStem: 193 122
AnchorPoint: "mid" 297 822 basechar 0
AnchorPoint: "top" 338 1513 basechar 0
LayerCount: 2
Fore
SplineSet
500 -9 m 257
 576 -8 l 257
 590 143 l 257
 511 148 l 258
 399 156 379 176 379 315 c 258
 379 1560 l 257
 162 1540 l 257
 162 320 l 258
 162 56 266 -9 485 -9 c 258
 500 -9 l 257
EndSplineSet
EndChar

StartChar: less
Encoding: 28 60 265
Width: 1107
VWidth: 0
GlyphClass: 2
Flags: W
PickledData: "(dp1
S'org.pippin.gimp.org.kernagic'
p2
(dp3
S'lstem'
p4
I0
sS'rstem'
p5
I0
ssS'com.typemytype.robofont.layerData'
p6
(dp7
S'b'
(dp8
S'name'
p9
S'less'
p10
sS'lib'
p11
(dp12
sS'unicodes'
p13
(tsS'width'
p14
I1107
sS'contours'
p15
(tsS'components'
p16
(tsS'anchors'
p17
(tsssS'org.robofab.postScriptHintData'
p18
(dp19
s."
LayerCount: 2
Fore
SplineSet
1008 149 m 257
 1008 324 l 257
 300 664 l 257
 1008 1031 l 257
 1008 1202 l 257
 73 711 l 257
 73 608 l 257
 1008 149 l 257
EndSplineSet
EndChar

StartChar: lessequal
Encoding: 479 8804 266
Width: 1192
VWidth: 0
GlyphClass: 2
Flags: W
PickledData: "(dp1
S'org.robofab.postScriptHintData'
p2
(dp3
sS'com.typemytype.robofont.layerData'
p4
(dp5
s."
LayerCount: 2
Fore
SplineSet
124 4 m 257
 1060 4 l 257
 1060 143 l 257
 124 144 l 257
 124 4 l 257
1037 260 m 257
 1037 422 l 257
 346 773 l 257
 1035 1144 l 257
 1035 1307 l 257
 143 820 l 257
 143 725 l 257
 1037 260 l 257
EndSplineSet
EndChar

StartChar: logicalnot
Encoding: 107 172 267
Width: 1234
VWidth: 0
GlyphClass: 2
Flags: W
PickledData: "(dp1
S'org.pippin.gimp.org.kernagic'
p2
(dp3
S'lstem'
p4
I0
sS'rstem'
p5
I0
ssS'com.typemytype.robofont.layerData'
p6
(dp7
sS'org.robofab.postScriptHintData'
p8
(dp9
s."
LayerCount: 2
Fore
SplineSet
102 818 m 257
 102 665 l 257
 924 665 l 257
 924 252 l 257
 1071 252 l 257
 1071 818 l 257
 102 818 l 257
EndSplineSet
EndChar

StartChar: lozenge
Encoding: 481 9674 268
Width: 1179
VWidth: 0
GlyphClass: 2
Flags: W
PickledData: "(dp1
S'org.pippin.gimp.org.kernagic'
p2
(dp3
S'lstem'
p4
I0
sS'rstem'
p5
I0
ssS'com.typemytype.robofont.layerData'
p6
(dp7
S'b'
(dp8
S'name'
p9
S'lozenge'
p10
sS'lib'
p11
(dp12
sS'unicodes'
p13
(tsS'width'
p14
I1164
sS'contours'
p15
(tsS'components'
p16
(tsS'anchors'
p17
(tsssS'org.robofab.postScriptHintData'
p18
(dp19
s."
LayerCount: 2
Fore
SplineSet
908 759 m 257
 852 654 644 246 587 140 c 257
 532 245 328 655 273 761 c 257
 329 866 539 1271 596 1376 c 257
 650 1270 854 864 908 759 c 257
538 1568 m 257
 115 759 l 257
 531 -47 l 257
 641 -47 l 257
 1067 760 l 257
 650 1568 l 257
 538 1568 l 257
EndSplineSet
EndChar

StartChar: m
Encoding: 77 109 270
Width: 1849
VWidth: 0
GlyphClass: 2
Flags: W
PickledData: "(dp1
S'org.pippin.gimp.org.kernagic'
p2
(dp3
S'lstem'
p4
I0
sS'rstem'
p5
I0
ssS'com.typemytype.robofont.layerData'
p6
(dp7
sS'com.fontlab.hintData'
p8
(dp9
S'vhints'
p10
((dp11
S'position'
p12
I193
sS'width'
p13
I122
s(dp14
g12
I193
sg13
I98
s(dp15
g12
I845
sg13
I122
s(dp16
g12
I1483
sg13
I122
stp17
sS'hhints'
p18
((dp19
g12
I982
sg13
I92
stp20
ssS'org.robofab.postScriptHintData'
p21
(dp22
s."
HStem: 982 92
VStem: 193 122 193 98 845 122 1483 122
AnchorPoint: "top" 981 1082 basechar 0
LayerCount: 2
Fore
SplineSet
1040 602 m 258
 1040 820 1175 951 1303 951 c 256
 1458 951 1489 804 1489 640 c 258
 1489 0 l 257
 1706 0 l 257
 1706 693 l 258
 1706 958 1582 1105 1357 1105 c 256
 1195 1105 1073 1021 1006 862 c 257
 959 1020 845 1105 687 1105 c 256
 539 1105 423 1028 359 878 c 257
 340 1082 l 257
 157 1082 l 257
 157 0 l 257
 375 0 l 257
 375 635 l 257
 394 823 485 951 633 951 c 256
 768 951 823 852 823 613 c 258
 823 0 l 257
 1040 0 l 257
 1040 602 l 258
EndSplineSet
EndChar

StartChar: macron
Encoding: 110 175 271
Width: 1123
VWidth: 0
GlyphClass: 4
Flags: W
PickledData: "(dp1
S'org.robofab.postScriptHintData'
p2
(dp3
sS'com.typemytype.robofont.layerData'
p4
(dp5
s."
AnchorPoint: "mid" 545 1367 mark 0
AnchorPoint: "top" 561 1069 mark 0
LayerCount: 2
Fore
SplineSet
244 1314 m 257
 854 1314 l 257
 854 1426 l 257
 244 1426 l 257
 244 1314 l 257
EndSplineSet
EndChar

StartChar: minus
Encoding: 471 8722 273
Width: 1179
VWidth: 0
GlyphClass: 2
Flags: W
PickledData: "(dp1
S'org.pippin.gimp.org.kernagic'
p2
(dp3
S'lstem'
p4
I0
sS'rstem'
p5
I0
ssS'com.typemytype.robofont.layerData'
p6
(dp7
sS'org.robofab.postScriptHintData'
p8
(dp9
s."
LayerCount: 2
Fore
SplineSet
102 666 m 257
 102 509 l 257
 1083 509 l 257
 1083 666 l 257
 102 666 l 257
EndSplineSet
EndChar

StartChar: multiply
Encoding: 150 215 274
Width: 994
VWidth: 0
GlyphClass: 2
Flags: W
PickledData: "(dp1
S'org.pippin.gimp.org.kernagic'
p2
(dp3
S'lstem'
p4
I0
sS'rstem'
p5
I0
ssS'com.typemytype.robofont.layerData'
p6
(dp7
sS'org.robofab.postScriptHintData'
p8
(dp9
s."
LayerCount: 2
Fore
SplineSet
109 929 m 257
 388 626 l 257
 102 319 l 257
 207 208 l 257
 495 513 l 257
 781 209 l 257
 885 321 l 257
 885 321 638 589 602 626 c 257
 882 926 l 257
 774 1037 l 257
 495 738 l 257
 214 1040 l 257
 109 929 l 257
EndSplineSet
EndChar

StartChar: n
Encoding: 78 110 275
Width: 1217
VWidth: 0
GlyphClass: 2
Flags: W
PickledData: "(dp1
S'org.pippin.gimp.org.kernagic'
p2
(dp3
S'lstem'
p4
I0
sS'rstem'
p5
I0
ssS'com.typemytype.robofont.layerData'
p6
(dp7
sS'com.fontlab.hintData'
p8
(dp9
S'vhints'
p10
((dp11
S'position'
p12
I193
sS'width'
p13
I122
s(dp14
g12
I903
sg13
I122
stp15
sS'hhints'
p16
((dp17
g12
I0
sg13
I22
s(dp18
g12
I982
sg13
I92
s(dp19
g12
I1034
sg13
I21
stp20
ssS'org.robofab.postScriptHintData'
p21
(dp22
s."
HStem: 0 22 982 92 1034 21
VStem: 193 122 903 122
AnchorPoint: "bot" 616 0 basechar 0
AnchorPoint: "top" 698 1082 basechar 0
LayerCount: 2
Fore
SplineSet
158 0 m 257
 376 0 l 257
 376 614 l 258
 376 806 464 951 661 951 c 256
 809 951 857 842 857 658 c 258
 857 0 l 257
 1074 0 l 257
 1074 656 l 258
 1074 943 960 1105 717 1105 c 256
 535 1105 422 1017 361 878 c 257
 341 1082 l 257
 158 1082 l 257
 158 0 l 257
EndSplineSet
EndChar

StartChar: nine
Encoding: 25 57 280
Width: 1284
VWidth: 0
GlyphClass: 2
Flags: W
PickledData: "(dp1
S'org.pippin.gimp.org.kernagic'
p2
(dp3
S'lstem'
p4
I0
sS'rstem'
p5
I0
ssS'com.typemytype.robofont.layerData'
p6
(dp7
sS'org.robofab.postScriptHintData'
p8
(dp9
s."
LayerCount: 2
Fore
SplineSet
953 1013 m 256
 953 793 790 713 659 713 c 256
 480 713 385 842 385 1013 c 256
 385 1177 491 1312 671 1312 c 256
 851 1312 953 1176 953 1013 c 256
347 0 m 257
 583 0 l 257
 954 488 l 258
 1082 655 1168 797 1168 1003 c 256
 1168 1258 987 1476 671 1476 c 256
 368 1476 169 1278 169 1014 c 256
 169 733 368 563 598 563 c 256
 675 563 755 586 819 625 c 257
 663 423 504 224 347 24 c 257
 347 0 l 257
EndSplineSet
EndChar

StartChar: notequal
Encoding: 478 8800 281
Width: 1109
VWidth: 0
GlyphClass: 2
Flags: W
PickledData: "(dp1
S'org.pippin.gimp.org.kernagic'
p2
(dp3
S'lstem'
p4
I0
sS'rstem'
p5
I0
ssS'com.typemytype.robofont.layerData'
p6
(dp7
S'b'
(dp8
S'name'
p9
S'notequal'
p10
sS'lib'
p11
(dp12
sS'unicodes'
p13
(tsS'width'
p14
I1079
sS'contours'
p15
(tsS'components'
p16
(tsS'anchors'
p17
(tsssS'org.robofab.postScriptHintData'
p18
(dp19
s."
LayerCount: 2
Fore
SplineSet
330 46 m 257
 470 343 l 257
 1018 343 l 257
 1010 481 l 257
 532 481 l 257
 677 768 l 257
 1018 768 l 257
 1008 911 l 257
 739 911 l 257
 853 1179 l 257
 732 1196 l 257
 596 911 l 257
 64 911 l 257
 73 769 l 257
 534 769 l 257
 392 482 l 257
 66 482 l 257
 73 343 l 257
 327 343 l 257
 211 67 l 257
 330 46 l 257
EndSplineSet
EndChar

StartChar: numbersign
Encoding: 3 35 283
Width: 1149
VWidth: 0
GlyphClass: 2
Flags: W
PickledData: "(dp1
S'org.pippin.gimp.org.kernagic'
p2
(dp3
S'lstem'
p4
I0
sS'rstem'
p5
I0
ssS'com.typemytype.robofont.layerData'
p6
(dp7
sS'org.robofab.postScriptHintData'
p8
(dp9
s."
LayerCount: 2
Fore
SplineSet
397 546 m 257
 483 979 l 257
 763 979 l 257
 678 546 l 257
 397 546 l 257
165 -14 m 257
 288 -14 l 257
 377 441 l 257
 657 441 l 257
 569 -14 l 257
 690 -14 l 257
 780 441 l 257
 992 441 l 257
 1008 546 l 257
 801 546 l 257
 885 979 l 257
 1083 979 l 257
 1100 1083 l 257
 905 1083 l 257
 998 1533 l 257
 877 1533 l 257
 783 1083 l 257
 503 1083 l 257
 596 1533 l 257
 472 1533 l 257
 379 1083 l 257
 178 1083 l 257
 164 979 l 257
 359 979 l 257
 274 546 l 257
 79 546 l 257
 65 441 l 257
 254 441 l 257
 165 -14 l 257
EndSplineSet
EndChar

StartChar: o
Encoding: 79 111 284
Width: 1215
VWidth: 0
GlyphClass: 2
Flags: W
PickledData: "(dp1
S'org.pippin.gimp.org.kernagic'
p2
(dp3
S'lstem'
p4
I0
sS'rstem'
p5
I0
ssS'com.typemytype.robofont.guides'
p6
((dp7
S'y'
I1093
sS'x'
I582
sS'magnetic'
p8
I5
sS'angle'
p9
F90
sS'isGlobal'
p10
I00
stp11
sS'com.typemytype.robofont.layerData'
p12
(dp13
sS'com.fontlab.hintData'
p14
(dp15
S'vhints'
p16
((dp17
S'position'
p18
I128
sS'width'
p19
I120
s(dp20
g18
I982
sg19
I120
stp21
sS'hhints'
p22
((dp23
g18
I-19
sg19
I92
s(dp24
g18
I982
sg19
I92
stp25
ssS'org.robofab.postScriptHintData'
p26
(dp27
s."
HStem: -19 92 982 92
VStem: 128 120 982 120
AnchorPoint: "ogonek" 703 1 basechar 0
AnchorPoint: "top" 608 1082 basechar 0
LayerCount: 2
Fore
SplineSet
608 -21 m 256
 927 -21 1109 207 1109 543 c 256
 1109 883 929 1105 608 1105 c 256
 286 1105 106 883 106 543 c 256
 106 207 288 -21 608 -21 c 256
608 134 m 256
 414 134 328 297 328 542 c 256
 328 790 415 951 608 951 c 256
 800 951 887 790 887 542 c 256
 887 298 800 134 608 134 c 256
EndSplineSet
Substitution2: "Single Substitution lookup 4 subtable" ordmasculine
EndChar

StartChar: oe
Encoding: 274 339 289
Width: 1896
VWidth: 0
GlyphClass: 2
Flags: W
PickledData: "(dp1
S'org.pippin.gimp.org.kernagic'
p2
(dp3
S'lstem'
p4
I0
sS'rstem'
p5
I0
ssS'com.typemytype.robofont.layerData'
p6
(dp7
S'b'
(dp8
S'name'
p9
S'oe'
p10
sS'lib'
p11
(dp12
sS'unicodes'
p13
(tsS'width'
p14
F1915.3599999999999
sS'contours'
p15
(tsS'components'
p16
(tsS'anchors'
p17
(tsssS'org.robofab.postScriptHintData'
p18
(dp19
s."
LayerCount: 2
Fore
SplineSet
1084 624 m 257
 1101 834 1224 955 1382 955 c 256
 1542 955 1623 845 1628 624 c 257
 1084 624 l 257
589 132 m 256
 386 132 298 298 298 542 c 256
 298 789 387 952 589 952 c 256
 791 952 880 789 880 542 c 256
 880 298 791 132 589 132 c 256
1798 606 m 258
 1798 910 1644 1104 1376 1104 c 256
 1218 1104 1056 1007 986 863 c 257
 924 1006 769 1104 589 1104 c 256
 275 1104 98 884 98 543 c 256
 98 206 278 -19 589 -19 c 256
 768 -19 927 86 984 227 c 257
 1054 81 1231 -19 1407 -19 c 256
 1563 -19 1693 31 1773 91 c 257
 1724 223 l 257
 1711 223 l 257
 1637 174 1548 133 1427 132 c 256
 1253 132 1090 226 1080 494 c 257
 1790 494 l 257
 1790 494 1798 550 1798 594 c 258
 1798 606 l 258
EndSplineSet
EndChar

StartChar: ogonek
Encoding: 404 731 290
Width: 766
VWidth: 0
GlyphClass: 4
Flags: W
PickledData: "(dp1
S'org.pippin.gimp.org.kernagic'
p2
(dp3
S'lstem'
p4
I0
sS'rstem'
p5
I0
ssS'com.typemytype.robofont.layerData'
p6
(dp7
sS'org.robofab.postScriptHintData'
p8
(dp9
s."
AnchorPoint: "ogonek" 490 0 mark 0
LayerCount: 2
Fore
SplineSet
444 -428 m 256
 498 -428 561 -413 602 -395 c 257
 598 -276 l 257
 581 -284 529 -303 483 -303 c 256
 439 -303 403 -275 403 -224 c 256
 403 -151 475 -45 540 4 c 257
 449 4 l 257
 353 -39 249 -147 249 -267 c 256
 249 -369 323 -428 444 -428 c 256
EndSplineSet
EndChar

StartChar: one
Encoding: 17 49 294
Width: 1284
VWidth: 0
GlyphClass: 2
Flags: W
PickledData: "(dp1
S'org.pippin.gimp.org.kernagic'
p2
(dp3
S'lstem'
p4
I0
sS'rstem'
p5
I0
ssS'com.typemytype.robofont.layerData'
p6
(dp7
sS'org.robofab.postScriptHintData'
p8
(dp9
s."
LayerCount: 2
Fore
SplineSet
197 0 m 257
 1152 0 l 257
 1152 158 l 257
 809 158 l 257
 809 1456 l 257
 607 1456 l 257
 524 1396 304 1315 206 1291 c 257
 206 1128 l 257
 290 1139 471 1198 582 1257 c 257
 582 158 l 257
 197 158 l 257
 197 0 l 257
EndSplineSet
EndChar

StartChar: onehalf
Encoding: 124 189 295
Width: 1810
VWidth: 0
GlyphClass: 3
Flags: W
PickledData: "(dp1
S'org.pippin.gimp.org.kernagic'
p2
(dp3
S'lstem'
p4
I0
sS'rstem'
p5
I0
ssS'com.typemytype.robofont.layerData'
p6
(dp7
sS'org.robofab.postScriptHintData'
p8
(dp9
s."
LayerCount: 2
Fore
SplineSet
381 0 m 257
 534 0 l 257
 1463 1485 l 257
 1311 1485 l 257
 381 0 l 257
141 595 m 257
 589 595 l 257
 589 716 l 257
 449 716 l 257
 449 1485 l 257
 326 1485 l 257
 288 1453 168 1395 132 1378 c 257
 132 1256 l 257
 153 1264 255 1308 292 1330 c 257
 292 716 l 257
 141 716 l 257
 141 595 l 257
1180 0 m 257
 1701 0 l 257
 1707 125 l 257
 1353 125 l 257
 1532 290 l 258
 1658 406 1715 488 1715 613 c 256
 1715 771 1599 875 1422 875 c 256
 1296 875 1185 809 1129 717 c 257
 1210 628 l 257
 1267 704 1340 742 1419 742 c 256
 1497 742 1562 697 1562 608 c 256
 1562 543 1531 483 1433 383 c 257
 1171 120 l 257
 1180 0 l 257
EndSplineSet
Ligature2: "fracDiagonalFractionslookup11 subtable" one slash two
EndChar

StartChar: onequarter
Encoding: 123 188 296
Width: 1712
VWidth: 0
GlyphClass: 3
Flags: W
PickledData: "(dp1
S'org.pippin.gimp.org.kernagic'
p2
(dp3
S'lstem'
p4
I0
sS'rstem'
p5
I0
ssS'com.typemytype.robofont.layerData'
p6
(dp7
sS'org.robofab.postScriptHintData'
p8
(dp9
s."
LayerCount: 2
Fore
SplineSet
1145 305 m 257
 1385 677 l 257
 1385 305 l 257
 1145 305 l 257
360 0 m 257
 518 0 l 257
 1449 1485 l 257
 1294 1485 l 257
 360 0 l 257
1386 0 m 257
 1526 0 l 257
 1526 187 l 257
 1640 187 l 257
 1639 305 l 257
 1526 305 l 257
 1526 862 l 257
 1376 862 l 257
 992 297 l 257
 992 187 l 257
 1386 187 l 257
 1386 0 l 257
130 595 m 257
 570 595 l 257
 570 724 l 257
 432 724 l 257
 432 1485 l 257
 309 1485 l 257
 271 1453 154 1395 118 1378 c 257
 118 1248 l 257
 139 1257 243 1300 280 1322 c 257
 280 724 l 257
 130 724 l 257
 130 595 l 257
EndSplineSet
Ligature2: "fracDiagonalFractionslookup11 subtable" one slash four
EndChar

StartChar: ordmasculine
Encoding: 121 186 298
Width: 965
VWidth: 0
GlyphClass: 2
Flags: W
PickledData: "(dp1
S'org.pippin.gimp.org.kernagic'
p2
(dp3
S'lstem'
p4
I0
sS'rstem'
p5
I0
ssS'com.typemytype.robofont.layerData'
p6
(dp7
S'b'
(dp8
S'name'
p9
S'ordmasculine'
p10
sS'lib'
p11
(dp12
sS'unicodes'
p13
(tsS'width'
p14
I965
sS'contours'
p15
(tsS'components'
p16
(tsS'anchors'
p17
(tsssS'org.robofab.postScriptHintData'
p18
(dp19
s."
LayerCount: 2
Fore
SplineSet
676 1101 m 256
 676 934 613 842 480 842 c 256
 355 842 292 935 292 1104 c 256
 292 1274 356 1370 480 1370 c 256
 608 1370 676 1272 676 1101 c 256
134 1104 m 256
 134 882 255 714 480 714 c 256
 693 714 827 885 827 1104 c 256
 827 1332 711 1498 480 1498 c 256
 255 1498 134 1329 134 1104 c 256
EndSplineSet
EndChar

StartChar: oslash
Encoding: 183 248 299
Width: 1215
VWidth: 0
GlyphClass: 2
Flags: W
PickledData: "(dp1
S'org.pippin.gimp.org.kernagic'
p2
(dp3
S'lstem'
p4
I0
sS'rstem'
p5
I0
ssS'com.typemytype.robofont.layerData'
p6
(dp7
sS'org.robofab.postScriptHintData'
p8
(dp9
s."
LayerCount: 2
Fore
SplineSet
200 -125 m 257
 268 -166 l 257
 998 1203 l 257
 923 1244 l 257
 200 -125 l 257
EndSplineSet
Refer: 284 111 N 1 0 0 1 0 0 2
EndChar

StartChar: p
Encoding: 80 112 302
Width: 1224
VWidth: 0
GlyphClass: 2
Flags: W
PickledData: "(dp1
S'org.pippin.gimp.org.kernagic'
p2
(dp3
S'lstem'
p4
I0
sS'rstem'
p5
I0
ssS'com.typemytype.robofont.layerData'
p6
(dp7
sS'com.fontlab.hintData'
p8
(dp9
S'vhints'
p10
((dp11
S'position'
p12
I193
sS'width'
p13
I122
s(dp14
g12
I193
sg13
I97
s(dp15
g12
I1009
sg13
I122
stp16
sS'hhints'
p17
((dp18
g12
I-19
sg13
I92
s(dp19
g12
I982
sg13
I92
stp20
ssS'org.robofab.postScriptHintData'
p21
(dp22
s."
HStem: -19 92 982 92
VStem: 193 122 193 97 1009 122
AnchorPoint: "top" 665 1082 basechar 0
LayerCount: 2
Fore
SplineSet
631 134 m 256
 520 134 429 176 369 258 c 257
 369 610 l 257
 377 813 460 951 649 951 c 256
 829 951 896 795 896 543 c 256
 896 273 807 134 631 134 c 256
158 -462 m 257
 374 -462 l 257
 374 -65 l 257
 369 92 l 257
 432 25 530 -20 663 -20 c 256
 949 -20 1117 212 1117 542 c 256
 1117 874 980 1105 688 1105 c 256
 522 1105 410 1015 359 865 c 257
 344 1082 l 257
 158 1082 l 257
 158 -462 l 257
EndSplineSet
EndChar

StartChar: paragraph
Encoding: 117 182 303
Width: 1166
VWidth: 0
GlyphClass: 2
Flags: W
PickledData: "(dp1
S'org.pippin.gimp.org.kernagic'
p2
(dp3
S'lstem'
p4
I0
sS'rstem'
p5
I0
ssS'com.typemytype.robofont.layerData'
p6
(dp7
sS'org.robofab.postScriptHintData'
p8
(dp9
s."
LayerCount: 2
Fore
SplineSet
656 1326 m 257
 807 1326 l 257
 807 -215 l 257
 946 -215 l 257
 946 1456 l 257
 578 1456 l 258
 232 1456 125 1291 125 1100 c 256
 125 919 235 747 517 747 c 257
 517 -215 l 257
 656 -215 l 257
 656 1326 l 257
EndSplineSet
EndChar

StartChar: parenright
Encoding: 9 41 305
Width: 796
VWidth: 0
GlyphClass: 2
Flags: W
PickledData: "(dp1
S'org.pippin.gimp.org.kernagic'
p2
(dp3
S'lstem'
p4
I0
sS'rstem'
p5
I0
ssS'com.typemytype.robofont.layerData'
p6
(dp7
S'b'
(dp8
S'name'
p9
S'parenright'
p10
sS'lib'
p11
(dp12
sS'unicodes'
p13
(tsS'width'
p14
I766
sS'contours'
p15
(tsS'components'
p16
(tsS'anchors'
p17
(tsssS'org.robofab.postScriptHintData'
p18
(dp19
s."
LayerCount: 2
Fore
SplineSet
590 672 m 256
 590 1006 489 1343 326 1592 c 257
 159 1592 l 257
 159 1556 l 257
 323 1301 412 1018 412 672 c 256
 412 326 323 40 159 -216 c 257
 159 -248 l 257
 326 -248 l 257
 489 1 590 338 590 672 c 256
EndSplineSet
EndChar

StartChar: partialdiff
Encoding: 466 8706 306
Width: 1223
VWidth: 0
GlyphClass: 2
Flags: W
PickledData: "(dp1
S'org.robofab.postScriptHintData'
p2
(dp3
s."
LayerCount: 2
Fore
SplineSet
502 98 m 256
 428 98 391 169 391 266 c 256
 391 475 559 808 875 828 c 257
 855 542 744 98 502 98 c 256
488 -20 m 256
 840 -20 1075 385 1075 913 c 256
 1075 1316 839 1560 548 1560 c 256
 451 1560 348 1533 245 1475 c 257
 288 1366 l 257
 363 1403 436 1421 505 1421 c 256
 718 1421 882 1251 882 969 c 256
 882 957 882 944 881 931 c 257
 425 924 171 568 171 294 c 256
 171 121 273 -20 488 -20 c 256
EndSplineSet
EndChar

StartChar: percent
Encoding: 5 37 307
Width: 1744
VWidth: 0
GlyphClass: 2
Flags: W
PickledData: "(dp1
S'org.pippin.gimp.org.kernagic'
p2
(dp3
S'lstem'
p4
I0
sS'rstem'
p5
I0
ssS'com.typemytype.robofont.layerData'
p6
(dp7
S'b'
(dp8
S'name'
p9
S'percent'
p10
sS'lib'
p11
(dp12
sS'unicodes'
p13
(tsS'width'
p14
I1563
sS'contours'
p15
(tsS'components'
p16
(tsS'anchors'
p17
(tsssS'org.robofab.postScriptHintData'
p18
(dp19
s."
LayerCount: 2
Fore
SplineSet
1272 -11 m 256
 1503 -11 1606 160 1606 381 c 256
 1606 605 1506 770 1272 770 c 256
 1043 770 940 601 940 381 c 256
 940 160 1039 -11 1272 -11 c 256
1274 111 m 256
 1129 111 1087 227 1087 382 c 256
 1087 533 1129 649 1274 649 c 256
 1418 649 1460 539 1460 382 c 256
 1460 231 1419 111 1274 111 c 256
340 0 m 257
 504 0 l 257
 1331 1476 l 257
 1177 1476 l 257
 340 0 l 257
401 716 m 256
 632 716 735 887 735 1107 c 256
 735 1331 635 1496 401 1496 c 256
 172 1496 77 1328 77 1107 c 256
 77 887 168 716 401 716 c 256
403 838 m 256
 258 838 216 953 216 1109 c 256
 216 1260 258 1375 403 1375 c 256
 547 1375 589 1265 589 1109 c 256
 589 957 548 838 403 838 c 256
EndSplineSet
EndChar

StartChar: period
Encoding: 14 46 308
Width: 654
VWidth: 0
GlyphClass: 2
Flags: W
PickledData: "(dp1
S'org.pippin.gimp.org.kernagic'
p2
(dp3
S'lstem'
p4
I0
sS'rstem'
p5
I0
ssS'com.typemytype.robofont.layerData'
p6
(dp7
S'b'
(dp8
S'name'
p9
S'period'
p10
sS'lib'
p11
(dp12
sS'unicodes'
p13
(tsS'width'
p14
I624
sS'contours'
p15
(tsS'components'
p16
(tsS'anchors'
p17
(tsssS'org.robofab.postScriptHintData'
p18
(dp19
s."
LayerCount: 2
Fore
SplineSet
328 -10 m 256
 405 -10 447 36 447 121 c 256
 447 205 405 250 328 250 c 256
 249 250 207 205 207 121 c 256
 207 35 249 -10 328 -10 c 256
EndSplineSet
EndChar

StartChar: periodcentered
Encoding: 118 183 309
Width: 638
VWidth: 0
GlyphClass: 2
Flags: W
PickledData: "(dp1
S'org.pippin.gimp.org.kernagic'
p2
(dp3
S'lstem'
p4
I0
sS'rstem'
p5
I0
ssS'com.typemytype.robofont.layerData'
p6
(dp7
S'b'
(dp8
S'name'
p9
S'periodcentered'
p10
sS'lib'
p11
(dp12
sS'unicodes'
p13
(tsS'width'
p14
I653
sS'contours'
p15
(tsS'components'
p16
(tsS'anchors'
p17
(tsssS'org.robofab.postScriptHintData'
p18
(dp19
s."
LayerCount: 2
Fore
SplineSet
366 496 m 256
 440 496 493 548 493 625 c 256
 493 701 440 751 366 751 c 256
 290 751 238 701 238 625 c 256
 238 548 290 496 366 496 c 256
EndSplineSet
EndChar

StartChar: perthousand
Encoding: 456 8240 310
Width: 2516
VWidth: 0
GlyphClass: 2
Flags: W
PickledData: "(dp1
S'org.pippin.gimp.org.kernagic'
p2
(dp3
S'lstem'
p4
I0
sS'rstem'
p5
I0
ssS'com.typemytype.robofont.layerData'
p6
(dp7
S'b'
(dp8
S'name'
p9
S'perthousand'
p10
sS'lib'
p11
(dp12
sS'unicodes'
p13
(tsS'width'
p14
I2251
sS'contours'
p15
(tsS'components'
p16
(tsS'anchors'
p17
(tsssS'org.robofab.postScriptHintData'
p18
(dp19
s."
LayerCount: 2
Fore
SplineSet
2044 -11 m 256
 2275 -11 2377 160 2377 381 c 256
 2377 605 2278 770 2044 770 c 256
 1815 770 1712 601 1712 381 c 256
 1712 160 1811 -11 2044 -11 c 256
2046 111 m 256
 1901 111 1858 227 1858 382 c 256
 1858 533 1901 649 2046 649 c 256
 2189 649 2231 539 2231 382 c 256
 2231 231 2190 111 2046 111 c 256
EndSplineSet
Refer: 307 37 N 1 0 0 1 21 0 2
EndChar

StartChar: pi
Encoding: 417 960 311
Width: 1454
VWidth: 0
GlyphClass: 2
Flags: W
PickledData: "(dp1
S'org.robofab.postScriptHintData'
p2
(dp3
sS'com.typemytype.robofont.layerData'
p4
(dp5
s."
LayerCount: 2
Fore
SplineSet
1144 -13 m 256
 1223 -13 1290 11 1324 45 c 257
 1324 175 l 257
 1296 165 1247 146 1205 146 c 256
 1133 146 1086 215 1086 378 c 256
 1086 490 1095 700 1117 893 c 257
 1357 893 l 257
 1357 1082 l 257
 453 1082 l 258
 212 1082 138 979 138 759 c 257
 235 759 l 257
 247 837 287 893 368 893 c 258
 481 893 l 257
 416 395 l 258
 388 175 258 114 150 114 c 257
 150 4 l 257
 501 4 573 107 583 329 c 258
 609 893 l 257
 976 893 l 257
 942 671 904 414 904 261 c 256
 904 78 977 -13 1144 -13 c 256
EndSplineSet
EndChar

StartChar: plus
Encoding: 11 43 312
Width: 1151
VWidth: 0
GlyphClass: 2
Flags: W
PickledData: "(dp1
S'org.pippin.gimp.org.kernagic'
p2
(dp3
S'lstem'
p4
I0
sS'rstem'
p5
I0
ssS'com.typemytype.robofont.layerData'
p6
(dp7
S'b'
(dp8
S'name'
p9
S'plus'
p10
sS'lib'
p11
(dp12
sS'unicodes'
p13
(tsS'width'
p14
I1136
sS'contours'
p15
(tsS'components'
p16
(tsS'anchors'
p17
(tsssS'org.robofab.postScriptHintData'
p18
(dp19
s."
LayerCount: 2
Fore
SplineSet
475 1177 m 257
 475 800 l 257
 114 800 l 257
 114 613 l 257
 474 613 l 257
 474 230 l 257
 667 230 l 257
 667 613 l 257
 1024 613 l 257
 1024 800 l 257
 667 800 l 257
 667 1177 l 257
 475 1177 l 257
EndSplineSet
EndChar

StartChar: plusminus
Encoding: 112 177 313
Width: 1136
VWidth: 0
GlyphClass: 2
Flags: W
PickledData: "(dp1
S'org.pippin.gimp.org.kernagic'
p2
(dp3
S'lstem'
p4
I0
sS'rstem'
p5
I0
ssS'com.typemytype.robofont.layerData'
p6
(dp7
sS'org.robofab.postScriptHintData'
p8
(dp9
s."
LayerCount: 2
Fore
SplineSet
105 141 m 257
 105 0 l 257
 1037 0 l 257
 1037 141 l 257
 105 141 l 257
487 1148 m 257
 487 772 l 257
 120 772 l 257
 120 623 l 257
 487 623 l 257
 487 243 l 257
 643 243 l 257
 643 623 l 257
 1005 623 l 257
 1005 772 l 257
 642 772 l 257
 642 1148 l 257
 487 1148 l 257
EndSplineSet
EndChar

StartChar: product
Encoding: 469 8719 314
Width: 1548
VWidth: 0
GlyphClass: 2
Flags: W
PickledData: "(dp1
S'org.pippin.gimp.org.kernagic'
p2
(dp3
S'lstem'
p4
I0
sS'rstem'
p5
I0
ssS'com.typemytype.robofont.layerData'
p6
(dp7
S'b'
(dp8
S'name'
p9
S'product'
p10
sS'lib'
p11
(dp12
sS'unicodes'
p13
(tsS'width'
p14
I1533
sS'contours'
p15
(tsS'components'
p16
(tsS'anchors'
p17
(tsssS'org.robofab.postScriptHintData'
p18
(dp19
s."
LayerCount: 2
Fore
SplineSet
201 1508 m 257
 201 0 l 257
 375 0 l 257
 375 1354 l 257
 1177 1354 l 257
 1177 0 l 257
 1351 0 l 257
 1351 1508 l 257
 201 1508 l 257
EndSplineSet
EndChar

StartChar: q
Encoding: 81 113 315
Width: 1217
VWidth: 0
GlyphClass: 2
Flags: W
PickledData: "(dp1
S'org.pippin.gimp.org.kernagic'
p2
(dp3
S'lstem'
p4
I0
sS'rstem'
p5
I0
ssS'com.typemytype.robofont.layerData'
p6
(dp7
sS'org.robofab.postScriptHintData'
p8
(dp9
s."
LayerCount: 2
Fore
SplineSet
599 134 m 256
 420 134 325 269 325 546 c 256
 325 809 418 951 594 951 c 256
 703 951 792 909 851 822 c 257
 851 245 l 257
 799 174 709 134 599 134 c 256
567 -20 m 256
 668 -20 775 14 850 93 c 257
 847 -28 l 257
 847 -462 l 257
 1062 -462 l 257
 1062 1082 l 257
 877 1082 l 257
 868 951 l 257
 810 1038 712 1105 567 1105 c 256
 274 1105 104 877 104 546 c 256
 104 210 263 -20 567 -20 c 256
EndSplineSet
EndChar

StartChar: question
Encoding: 31 63 316
Width: 953
VWidth: 0
GlyphClass: 2
Flags: W
PickledData: "(dp1
S'org.pippin.gimp.org.kernagic'
p2
(dp3
S'lstem'
p4
I0
sS'rstem'
p5
I0
ssS'com.typemytype.robofont.layerData'
p6
(dp7
sS'org.robofab.postScriptHintData'
p8
(dp9
s."
LayerCount: 2
Fore
SplineSet
370 -15 m 256
 453 -15 495 42 495 112 c 256
 495 180 453 238 370 238 c 256
 285 238 242 180 242 112 c 256
 242 43 285 -15 370 -15 c 256
330 446 m 257
 411 439 l 257
 537 787 798 832 798 1152 c 256
 798 1392 628 1498 437 1498 c 256
 314 1498 197 1458 116 1390 c 257
 163 1232 l 257
 215 1265 310 1315 407 1315 c 256
 529 1315 593 1246 593 1119 c 256
 593 920 370 769 330 446 c 257
EndSplineSet
EndChar

StartChar: quotedbl
Encoding: 2 34 318
Width: 736
VWidth: 0
GlyphClass: 2
Flags: W
PickledData: "(dp1
S'org.robofab.postScriptHintData'
p2
(dp3
sS'com.typemytype.robofont.layerData'
p4
(dp5
s."
LayerCount: 2
Fore
SplineSet
493 979 m 257
 596 979 l 257
 636 1534 l 257
 423 1534 l 257
 493 979 l 257
172 979 m 257
 276 979 l 257
 315 1534 l 257
 103 1534 l 257
 172 979 l 257
EndSplineSet
EndChar

StartChar: quotedblbase
Encoding: 451 8222 319
Width: 804
VWidth: 0
GlyphClass: 2
Flags: W
PickledData: "(dp1
S'org.robofab.postScriptHintData'
p2
(dp3
s."
LayerCount: 2
Fore
SplineSet
439 -327 m 257
 574 -327 l 257
 688 157 l 257
 485 157 l 257
 439 -327 l 257
108 -327 m 257
 246 -327 l 257
 355 157 l 257
 156 157 l 257
 108 -327 l 257
EndSplineSet
EndChar

StartChar: quotedblleft
Encoding: 449 8220 320
Width: 920
VWidth: 0
GlyphClass: 2
Flags: W
PickledData: "(dp1
S'org.robofab.postScriptHintData'
p2
(dp3
sS'com.typemytype.robofont.layerData'
p4
(dp5
s."
LayerCount: 2
Fore
SplineSet
517 1022 m 257
 732 1022 l 257
 776 1513 l 257
 630 1513 l 257
 517 1022 l 257
150 1022 m 257
 364 1022 l 257
 408 1513 l 257
 262 1513 l 257
 150 1022 l 257
EndSplineSet
EndChar

StartChar: quotedblright
Encoding: 450 8221 321
Width: 920
VWidth: 0
GlyphClass: 2
Flags: W
PickledData: "(dp1
S'org.robofab.postScriptHintData'
p2
(dp3
sS'com.typemytype.robofont.layerData'
p4
(dp5
s."
LayerCount: 2
Fore
SplineSet
150 1022 m 257
 295 1022 l 257
 408 1513 l 257
 194 1513 l 257
 150 1022 l 257
517 1022 m 257
 663 1022 l 257
 776 1513 l 257
 561 1513 l 257
 517 1022 l 257
EndSplineSet
EndChar

StartChar: quoteleft
Encoding: 446 8216 322
Width: 526
VWidth: 0
GlyphClass: 2
Flags: W
PickledData: "(dp1
S'org.robofab.postScriptHintData'
p2
(dp3
sS'com.typemytype.robofont.layerData'
p4
(dp5
s."
LayerCount: 2
Fore
SplineSet
408 1513 m 257
 262 1513 l 257
 150 1022 l 257
 364 1022 l 257
 408 1513 l 257
EndSplineSet
EndChar

StartChar: quoteright
Encoding: 447 8217 323
Width: 526
VWidth: 0
GlyphClass: 2
Flags: W
PickledData: "(dp1
S'org.robofab.postScriptHintData'
p2
(dp3
sS'com.typemytype.robofont.layerData'
p4
(dp5
s."
LayerCount: 2
Fore
SplineSet
150 1022 m 257
 295 1022 l 257
 408 1513 l 257
 194 1513 l 257
 150 1022 l 257
EndSplineSet
EndChar

StartChar: quotesinglbase
Encoding: 448 8218 324
Width: 472
VWidth: 0
GlyphClass: 2
Flags: W
PickledData: "(dp1
S'org.robofab.postScriptHintData'
p2
(dp3
s."
LayerCount: 2
Fore
SplineSet
100 -327 m 257
 239 -327 l 257
 354 157 l 257
 151 157 l 257
 100 -327 l 257
EndSplineSet
EndChar

StartChar: quotesingle
Encoding: 7 39 325
Width: 459
VWidth: 0
GlyphClass: 2
Flags: W
PickledData: "(dp1
S'org.robofab.postScriptHintData'
p2
(dp3
s."
LayerCount: 2
Fore
SplineSet
169 947 m 257
 283 947 l 257
 316 1514 l 257
 111 1514 l 257
 169 947 l 257
EndSplineSet
EndChar

StartChar: r
Encoding: 82 114 326
Width: 797
VWidth: 0
GlyphClass: 2
Flags: W
PickledData: "(dp1
S'org.pippin.gimp.org.kernagic'
p2
(dp3
S'lstem'
p4
I0
sS'rstem'
p5
I352
ssS'com.typemytype.robofont.layerData'
p6
(dp7
sS'com.fontlab.hintData'
p8
(dp9
S'vhints'
p10
((dp11
S'position'
p12
I193
sS'width'
p13
I122
s(dp14
g12
I193
sg13
I92
stp15
sS'hhints'
p16
((dp17
g12
I974
sg13
I94
stp18
ssS'org.robofab.postScriptHintData'
p19
(dp20
s."
HStem: 974 94
VStem: 193 122 193 92
AnchorPoint: "bot" 305 0 basechar 0
AnchorPoint: "top" 452 1082 basechar 0
LayerCount: 2
Fore
SplineSet
157 0 m 257
 374 0 l 257
 374 613 l 258
 374 788 483 922 681 922 c 258
 690 922 l 257
 733 920 l 257
 749 1087 l 257
 717 1093 687 1094 658 1094 c 256
 541 1094 428 1036 356 868 c 257
 338 1082 l 257
 157 1082 l 257
 157 0 l 257
EndSplineSet
EndChar

StartChar: radical
Encoding: 474 8730 328
Width: 1202
VWidth: 0
GlyphClass: 2
Flags: W
PickledData: "(dp1
S'org.pippin.gimp.org.kernagic'
p2
(dp3
S'lstem'
p4
I0
sS'rstem'
p5
I0
ssS'com.typemytype.robofont.layerData'
p6
(dp7
S'b'
(dp8
S'name'
p9
S'radical'
p10
sS'lib'
p11
(dp12
sS'unicodes'
p13
(tsS'width'
p14
I1136
sS'contours'
p15
(tsS'components'
p16
(tsS'anchors'
p17
(tsssS'org.robofab.postScriptHintData'
p18
(dp19
s."
LayerCount: 2
Fore
SplineSet
1009 1679 m 257
 909 1260 705 503 606 84 c 257
 519 368 416 636 321 912 c 257
 42 842 l 257
 60 720 l 257
 207 754 l 257
 538 -164 l 257
 717 -164 l 257
 1170 1679 l 257
 1009 1679 l 257
EndSplineSet
EndChar

StartChar: registered
Encoding: 109 174 331
Width: 1861
VWidth: 0
GlyphClass: 2
Flags: W
PickledData: "(dp1
S'org.pippin.gimp.org.kernagic'
p2
(dp3
S'lstem'
p4
I0
sS'rstem'
p5
I0
ssS'com.typemytype.robofont.layerData'
p6
(dp7
sS'org.robofab.postScriptHintData'
p8
(dp9
s."
LayerCount: 2
Fore
SplineSet
915 -30 m 256
 1303 -30 1670 250 1670 728 c 256
 1670 1206 1303 1486 915 1486 c 256
 528 1486 162 1206 162 728 c 256
 162 250 528 -30 915 -30 c 256
915 75 m 256
 586 75 285 317 285 728 c 256
 285 1138 586 1381 915 1381 c 256
 1245 1381 1549 1138 1549 728 c 256
 1549 317 1245 75 915 75 c 256
751 819 m 257
 751 1096 l 257
 906 1096 l 258
 1064 1096 1123 1085 1123 960 c 256
 1123 856 1074 819 934 819 c 258
 751 819 l 257
623 300 m 257
 750 300 l 257
 750 717 l 257
 926 717 l 257
 933 709 1140 300 1140 300 c 257
 1285 300 l 257
 1285 300 1067 714 1055 730 c 257
 1191 752 1248 834 1248 965 c 256
 1248 1139 1150 1203 927 1203 c 258
 623 1203 l 257
 623 300 l 257
EndSplineSet
EndChar

StartChar: ring
Encoding: 403 730 332
Width: 733
VWidth: 0
GlyphClass: 4
Flags: W
PickledData: "(dp1
S'org.robofab.postScriptHintData'
p2
(dp3
sS'com.typemytype.robofont.layerData'
p4
(dp5
s."
AnchorPoint: "top" 352 1069 mark 0
LayerCount: 2
Fore
SplineSet
353 1196 m 256
 472 1196 554 1285 554 1391 c 256
 554 1496 473 1583 353 1583 c 256
 234 1583 154 1497 154 1391 c 256
 154 1285 235 1196 353 1196 c 256
353 1286 m 256
 294 1286 259 1333 259 1389 c 256
 259 1443 296 1492 353 1492 c 256
 411 1492 451 1443 451 1389 c 256
 451 1334 411 1286 353 1286 c 256
EndSplineSet
EndChar

StartChar: s
Encoding: 83 115 333
Width: 983
VWidth: 0
GlyphClass: 2
Flags: W
PickledData: "(dp1
S'org.pippin.gimp.org.kernagic'
p2
(dp3
S'lstem'
p4
I168
sS'rstem'
p5
I620
ssS'com.typemytype.robofont.guides'
p6
((dp7
S'y'
I381
sS'x'
I77
sS'magnetic'
p8
I5
sS'angle'
p9
F90
sS'isGlobal'
p10
I00
stp11
sS'com.typemytype.robofont.layerData'
p12
(dp13
sS'com.fontlab.hintData'
p14
(dp15
S'vhints'
p16
((dp17
S'position'
p18
I142
sS'width'
p19
I107
s(dp20
g18
I738
sg19
I104
stp21
sS'hhints'
p22
((dp23
g18
I-19
sg19
I92
s(dp24
g18
I982
sg19
I92
stp25
ssS'org.robofab.postScriptHintData'
p26
(dp27
s."
HStem: -19 92 982 92
VStem: 142 107 738 104
AnchorPoint: "bot" 485 1 basechar 0
AnchorPoint: "top" 502 1083 basechar 0
LayerCount: 2
Fore
SplineSet
704 306 m 256
 704 191 636 132 510 132 c 256
 413 132 293 161 205 264 c 257
 188 264 l 257
 79 160 l 257
 173 40 331 -20 513 -20 c 256
 728 -20 905 81 905 314 c 256
 905 436 869 536 616 623 c 258
 490 666 l 257
 355 711 330 746 330 810 c 256
 330 895 388 948 521 948 c 256
 627 948 713 908 764 846 c 257
 775 846 l 257
 885 940 l 257
 817 1042 686 1105 510 1105 c 256
 264 1105 112 992 112 806 c 256
 112 671 160 582 407 501 c 257
 527 463 l 258
 680 414 704 369 704 306 c 256
EndSplineSet
EndChar

StartChar: section
Encoding: 102 167 339
Width: 1064
VWidth: 0
GlyphClass: 2
Flags: W
PickledData: "(dp1
S'org.pippin.gimp.org.kernagic'
p2
(dp3
S'lstem'
p4
I0
sS'rstem'
p5
I0
ssS'com.typemytype.robofont.layerData'
p6
(dp7
S'b'
(dp8
S'name'
p9
S'section'
p10
sS'lib'
p11
(dp12
sS'unicodes'
p13
(tsS'width'
p14
I1079
sS'contours'
p15
(tsS'components'
p16
(tsS'anchors'
p17
(tsssS'org.robofab.postScriptHintData'
p18
(dp19
s."
LayerCount: 2
Fore
SplineSet
683 588 m 257
 661 598 619 615 511 648 c 257
 370 699 336 723 336 799 c 256
 336 852 356 891 397 914 c 257
 404 910 436 898 544 860 c 256
 682 813 722 763 722 696 c 256
 722 651 708 614 683 588 c 257
511 -20 m 256
 716 -20 884 70 884 305 c 256
 884 392 863 459 805 513 c 257
 855 565 886 631 886 724 c 256
 886 869 831 950 615 1024 c 256
 378 1105 352 1131 352 1206 c 256
 352 1292 405 1342 543 1342 c 256
 646 1342 743 1306 804 1275 c 257
 849 1414 l 257
 754 1465 642 1496 524 1496 c 256
 309 1496 163 1391 163 1193 c 256
 163 1106 193 1040 267 983 c 257
 205 930 166 857 166 774 c 256
 166 645 226 565 419 498 c 256
 664 414 704 367 704 296 c 256
 704 185 632 134 512 134 c 256
 402 134 287 174 185 225 c 257
 185 60 l 257
 284 11 404 -20 511 -20 c 256
EndSplineSet
EndChar

StartChar: semicolon
Encoding: 27 59 340
Width: 725
VWidth: 0
GlyphClass: 2
Flags: W
PickledData: "(dp1
S'org.pippin.gimp.org.kernagic'
p2
(dp3
S'lstem'
p4
I0
sS'rstem'
p5
I0
ssS'com.typemytype.robofont.layerData'
p6
(dp7
sS'org.robofab.postScriptHintData'
p8
(dp9
s."
LayerCount: 2
Fore
SplineSet
375 823 m 256
 461 823 508 882 508 956 c 256
 508 1030 461 1091 375 1091 c 256
 289 1091 240 1030 240 956 c 256
 240 881 291 823 375 823 c 256
239 -314 m 257
 367 -314 l 257
 485 139 l 257
 485 248 l 257
 279 248 l 257
 279 230 239 -314 239 -314 c 257
EndSplineSet
EndChar

StartChar: seven
Encoding: 23 55 341
Width: 1284
VWidth: 0
GlyphClass: 2
Flags: W
PickledData: "(dp1
S'org.pippin.gimp.org.kernagic'
p2
(dp3
S'lstem'
p4
I0
sS'rstem'
p5
I0
ssS'com.typemytype.robofont.layerData'
p6
(dp7
sS'org.robofab.postScriptHintData'
p8
(dp9
s."
LayerCount: 2
Fore
SplineSet
339 0 m 257
 567 0 l 257
 1102 1296 l 257
 1100 1456 l 257
 173 1456 l 257
 190 1286 l 257
 868 1286 l 257
 339 0 l 257
EndSplineSet
EndChar

StartChar: six
Encoding: 22 54 342
Width: 1284
VWidth: 0
GlyphClass: 2
Flags: W
PickledData: "(dp1
S'org.pippin.gimp.org.kernagic'
p2
(dp3
S'lstem'
p4
I0
sS'rstem'
p5
I0
ssS'com.typemytype.robofont.layerData'
p6
(dp7
sS'org.robofab.postScriptHintData'
p8
(dp9
s."
LayerCount: 2
Fore
SplineSet
656 145 m 256
 476 145 377 281 377 444 c 256
 377 662 535 743 660 743 c 256
 835 743 935 620 935 448 c 256
 935 284 836 145 656 145 c 256
658 -20 m 256
 962 -20 1151 183 1151 446 c 256
 1151 726 959 893 734 893 c 256
 629 893 547 855 487 809 c 257
 641 1016 794 1224 948 1432 c 257
 948 1456 l 257
 713 1456 l 257
 363 972 l 258
 237 798 162 660 162 453 c 256
 162 198 343 -20 658 -20 c 256
EndSplineSet
EndChar

StartChar: slash
Encoding: 15 47 343
Width: 980
VWidth: 0
GlyphClass: 2
Flags: W
PickledData: "(dp1
S'org.pippin.gimp.org.kernagic'
p2
(dp3
S'lstem'
p4
I0
sS'rstem'
p5
I0
ssS'com.typemytype.robofont.layerData'
p6
(dp7
S'b'
(dp8
S'name'
p9
S'slash'
p10
sS'lib'
p11
(dp12
sS'unicodes'
p13
(tsS'width'
p14
I965
sS'contours'
p15
(tsS'components'
p16
(tsS'anchors'
p17
(tsssS'org.robofab.postScriptHintData'
p18
(dp19
s."
LayerCount: 2
Fore
SplineSet
114 -153 m 257
 278 -153 l 257
 902 1560 l 257
 734 1560 l 257
 114 -153 l 257
EndSplineSet
EndChar

StartChar: slashbar
Encoding: 65541 -1 344
Width: 746
VWidth: 0
GlyphClass: 4
Flags: W
PickledData: "(dp1
S'org.pippin.gimp.org.kernagic'
p2
(dp3
S'lstem'
p4
I0
sS'rstem'
p5
I0
ssS'com.typemytype.robofont.layerData'
p6
(dp7
S'b'
(dp8
S'name'
p9
S'slashbar'
p10
sS'lib'
p11
(dp12
sS'unicodes'
p13
(tsS'width'
p14
I908
sS'contours'
p15
(tsS'components'
p16
(tsS'anchors'
p17
(tsssS'org.robofab.postScriptHintData'
p18
(dp19
s."
AnchorPoint: "mid" 468 704 mark 0
LayerCount: 2
Fore
SplineSet
175 478 m 257
 785 784 l 257
 785 939 l 257
 175 633 l 257
 175 478 l 257
EndSplineSet
EndChar

StartChar: sterling
Encoding: 98 163 346
Width: 1159
VWidth: 0
GlyphClass: 2
Flags: W
PickledData: "(dp1
S'org.pippin.gimp.org.kernagic'
p2
(dp3
S'lstem'
p4
I0
sS'rstem'
p5
I0
ssS'com.typemytype.robofont.layerData'
p6
(dp7
S'b'
(dp8
S'name'
p9
S'sterling'
p10
sS'lib'
p11
(dp12
sS'unicodes'
p13
(tsS'width'
p14
I1136
sS'contours'
p15
((dp16
S'points'
p17
((dp18
S'segmentType'
p19
S'line'
p20
sS'x'
I20
sS'smooth'
p21
I00
sS'y'
I0
s(dp22
g19
S'line'
p23
sS'x'
I8
sg21
I00
sS'y'
I115
s(dp24
g19
S'line'
p25
sS'x'
I180
sg21
I00
sS'y'
I132
s(dp26
g19
S'line'
p27
sS'x'
I180
sg21
I00
sS'y'
I683
s(dp28
g19
S'line'
p29
sS'x'
I8
sg21
I00
sS'y'
I683
s(dp30
g19
S'line'
p31
sS'x'
I8
sg21
I00
sS'y'
I806
s(dp32
g19
S'line'
p33
sS'x'
I180
sg21
I00
sS'y'
I806
s(dp34
g19
S'line'
p35
sS'x'
I180
sg21
I01
sS'y'
I920
s(dp36
S'y'
I1183
sS'x'
I180
sg21
I00
s(dp37
S'y'
I1476
sS'x'
I245
sg21
I00
s(dp38
g19
S'curve'
p39
sS'x'
I598
sg21
I01
sS'y'
I1476
s(dp40
S'y'
I1476
sS'x'
I742
sg21
I00
s(dp41
S'y'
I1421
sS'x'
I854
sg21
I00
s(dp42
g19
S'curve'
p43
sS'x'
I939
sg21
I00
sS'y'
I1347
s(dp44
g19
S'line'
p45
sS'x'
I871
sg21
I00
sS'y'
I1229
s(dp46
S'y'
I1297
sS'x'
I785
sg21
I00
s(dp47
S'y'
I1334
sS'x'
I700
sg21
I00
s(dp48
g19
S'curve'
p49
sS'x'
I598
sg21
I01
sS'y'
I1334
s(dp50
S'y'
I1334
sS'x'
I397
sg21
I00
s(dp51
S'y'
I1179
sS'x'
I356
sg21
I00
s(dp52
g19
S'curve'
p53
sS'x'
I356
sg21
I01
sS'y'
I949
s(dp54
g19
S'line'
p55
sS'x'
I356
sg21
I00
sS'y'
I806
s(dp56
g19
S'line'
p57
sS'x'
I739
sg21
I00
sS'y'
I806
s(dp58
g19
S'line'
p59
sS'x'
I739
sg21
I00
sS'y'
I683
s(dp60
g19
S'line'
p61
sS'x'
I356
sg21
I00
sS'y'
I683
s(dp62
g19
S'line'
p63
sS'x'
I356
sg21
I00
sS'y'
I134
s(dp64
g19
S'line'
p65
sS'x'
I953
sg21
I00
sS'y'
I134
s(dp66
g19
S'line'
p67
sS'x'
I940
sg21
I00
sS'y'
I0
stp68
stp69
sS'components'
p70
(tsS'anchors'
p71
(tsssS'org.robofab.postScriptHintData'
p72
(dp73
s."
LayerCount: 2
Fore
SplineSet
478 974 m 258
 478 1206 561 1316 718 1316 c 256
 817 1316 880 1274 950 1222 c 257
 968 1222 l 257
 1045 1362 l 257
 986 1418 871 1497 683 1497 c 256
 348 1497 251 1248 251 961 c 258
 251 824 l 257
 75 824 l 257
 75 678 l 257
 251 678 l 257
 251 164 l 257
 78 146 l 257
 89 0 l 257
 1038 0 l 257
 1048 166 l 257
 478 166 l 257
 478 678 l 257
 840 678 l 257
 840 824 l 257
 478 824 l 257
 478 974 l 258
EndSplineSet
EndChar

StartChar: t
Encoding: 84 116 348
Width: 818
VWidth: 0
GlyphClass: 2
Flags: W
PickledData: "(dp1
S'org.pippin.gimp.org.kernagic'
p2
(dp3
S'lstem'
p4
I189
sS'rstem'
p5
I480
ssS'com.typemytype.robofont.layerData'
p6
(dp7
sS'com.fontlab.hintData'
p8
(dp9
S'vhints'
p10
((dp11
S'position'
p12
I244
sS'width'
p13
I122
s(dp14
g12
I286
sg13
I80
stp15
sS'hhints'
p16
((dp17
g12
I-11
sg13
I83
stp18
ssS'org.robofab.postScriptHintData'
p19
(dp20
s."
HStem: -11 83
VStem: 244 122 286 80
AnchorPoint: "mid" 369 647 basechar 0
AnchorPoint: "bot" 484 0 basechar 0
AnchorPoint: "top" 353 1367 basechar 0
LayerCount: 2
Fore
SplineSet
596 -9 m 257
 719 -7 l 257
 727 142 l 257
 609 147 l 257
 456 152 440 188 440 348 c 258
 440 952 l 257
 728 952 l 257
 728 1082 l 257
 440 1082 l 257
 440 1392 l 257
 255 1378 l 257
 229 1082 l 257
 60 1071 l 257
 55 952 l 257
 224 952 l 257
 224 351 l 258
 224 88 273 -9 596 -9 c 257
EndSplineSet
EndChar

StartChar: thorn
Encoding: 189 254 353
Width: 1191
VWidth: 0
GlyphClass: 2
Flags: W
PickledData: "(dp1
S'org.pippin.gimp.org.kernagic'
p2
(dp3
S'lstem'
p4
I0
sS'rstem'
p5
I0
ssS'com.typemytype.robofont.layerData'
p6
(dp7
S'b'
(dp8
S'name'
p9
S'thorn'
p10
sS'lib'
p11
(dp12
sS'unicodes'
p13
(tsS'width'
p14
I1221
sS'contours'
p15
(tsS'components'
p16
(tsS'anchors'
p17
(tsssS'org.robofab.postScriptHintData'
p18
(dp19
s."
LayerCount: 2
Fore
SplineSet
126 388 m 257
 126 -454 l 257
 337 -454 l 257
 337 388 l 257
 126 388 l 257
EndSplineSet
Refer: 153 98 N 1 0 0 1 -31 0 2
EndChar

StartChar: three
Encoding: 19 51 354
Width: 1242
VWidth: 0
GlyphClass: 2
Flags: W
PickledData: "(dp1
S'org.pippin.gimp.org.kernagic'
p2
(dp3
S'lstem'
p4
I0
sS'rstem'
p5
I0
ssS'com.typemytype.robofont.layerData'
p6
(dp7
sS'org.robofab.postScriptHintData'
p8
(dp9
s."
LayerCount: 2
Fore
SplineSet
607 -20 m 256
 901 -20 1089 150 1089 391 c 256
 1089 578 987 734 768 767 c 257
 967 806 1048 937 1048 1089 c 256
 1050 1332 883 1476 609 1476 c 256
 452 1476 244 1419 150 1236 c 257
 267 1133 l 257
 287 1132 l 257
 367 1253 473 1299 595 1299 c 258
 603 1299 l 258
 758 1299 834 1217 834 1082 c 258
 834 1074 l 258
 834 868 653 837 482 837 c 258
 401 837 l 257
 425 675 l 257
 482 675 l 258
 730 675 867 616 867 398 c 256
 867 236 754 157 599 157 c 256
 490 157 357 198 282 312 c 257
 266 312 l 257
 152 206 l 257
 236 58 422 -20 607 -20 c 256
EndSplineSet
EndChar

StartChar: threequarters
Encoding: 125 190 355
Width: 1743
VWidth: 0
GlyphClass: 3
Flags: W
PickledData: "(dp1
S'org.pippin.gimp.org.kernagic'
p2
(dp3
S'lstem'
p4
I0
sS'rstem'
p5
I0
ssS'com.typemytype.robofont.layerData'
p6
(dp7
sS'org.robofab.postScriptHintData'
p8
(dp9
s."
LayerCount: 2
Fore
SplineSet
1203 305 m 257
 1443 677 l 257
 1443 305 l 257
 1203 305 l 257
424 0 m 257
 582 0 l 257
 1513 1485 l 257
 1359 1485 l 257
 424 0 l 257
1443 0 m 257
 1583 0 l 257
 1583 187 l 257
 1698 187 l 257
 1697 305 l 257
 1584 305 l 257
 1584 862 l 257
 1433 862 l 257
 1049 297 l 257
 1049 187 l 257
 1443 187 l 257
 1443 0 l 257
361 589 m 256
 516 589 658 673 658 854 c 256
 658 950 600 1033 497 1061 c 257
 602 1085 638 1183 638 1256 c 256
 638 1409 514 1476 375 1476 c 256
 285 1476 189 1447 117 1394 c 257
 170 1293 l 257
 238 1333 306 1353 362 1353 c 256
 441 1353 495 1314 495 1236 c 256
 495 1161 445 1114 341 1114 c 258
 242 1114 l 257
 242 992 l 257
 342 993 l 257
 460 993 515 944 515 852 c 256
 515 753 446 713 359 713 c 256
 296 713 224 736 166 773 c 257
 116 663 l 257
 187 614 276 589 361 589 c 256
EndSplineSet
Ligature2: "fracDiagonalFractionslookup11 subtable" three slash four
EndChar

StartChar: tilde
Encoding: 405 732 356
Width: 986
VWidth: 0
GlyphClass: 4
Flags: W
PickledData: "(dp1
S'org.robofab.postScriptHintData'
p2
(dp3
sS'com.typemytype.robofont.layerData'
p4
(dp5
sS'com.fontlab.hintData'
p6
(dp7
S'vhints'
p8
((dp9
S'position'
p10
I169
sS'width'
p11
I63
s(dp12
g10
I657
sg11
I67
stp13
sS'hhints'
p14
((dp15
g10
I1301
sg11
I88
s(dp16
g10
I1400
sg11
I79
stp17
ss."
HStem: 1301 88 1400 79
VStem: 169 63 657 67
AnchorPoint: "top" 493 1069 mark 0
LayerCount: 2
Fore
SplineSet
168 1286 m 257
 270 1286 l 257
 281 1357 305 1386 341 1386 c 256
 412 1386 526 1286 634 1286 c 256
 739 1286 795 1378 795 1510 c 257
 690 1510 l 257
 679 1446 659 1425 628 1425 c 256
 567 1425 469 1511 343 1511 c 256
 226 1511 168 1421 168 1286 c 257
EndSplineSet
EndChar

StartChar: trademark
Encoding: 463 8482 357
Width: 2171
VWidth: 0
GlyphClass: 2
Flags: W
PickledData: "(dp1
S'org.robofab.postScriptHintData'
p2
(dp3
sS'com.typemytype.robofont.layerData'
p4
(dp5
S'b'
(dp6
S'name'
p7
S'trademark'
p8
sS'lib'
p9
(dp10
sS'unicodes'
p11
(tsS'width'
p12
I2216
sS'contours'
p13
(tsS'components'
p14
(tsS'anchors'
p15
(tsss."
LayerCount: 2
Fore
SplineSet
381 522 m 257
 540 522 l 257
 540 1330 l 257
 840 1330 l 257
 840 1456 l 257
 82 1456 l 257
 82 1330 l 257
 381 1330 l 257
 381 522 l 257
961 522 m 257
 1104 522 l 257
 1113 1231 l 257
 1403 626 l 257
 1506 626 l 257
 1797 1225 l 257
 1807 522 l 257
 1949 522 l 257
 1931 1456 l 257
 1770 1456 l 257
 1456 811 l 257
 1142 1456 l 257
 978 1456 l 257
 961 522 l 257
EndSplineSet
EndChar

StartChar: two
Encoding: 18 50 358
Width: 1284
VWidth: 0
GlyphClass: 2
Flags: W
PickledData: "(dp1
S'org.pippin.gimp.org.kernagic'
p2
(dp3
S'lstem'
p4
I0
sS'rstem'
p5
I0
ssS'com.typemytype.robofont.layerData'
p6
(dp7
sS'org.robofab.postScriptHintData'
p8
(dp9
s."
LayerCount: 2
Fore
SplineSet
276 1156 m 257
 353 1245 484 1300 609 1300 c 256
 754 1300 883 1220 883 1047 c 256
 883 903 825 835 694 707 c 258
 154 176 l 257
 188 0 l 257
 1066 0 l 257
 1076 171 l 257
 408 171 l 257
 823 567 l 258
 1021 755 1092 861 1092 1050 c 256
 1092 1317 893 1476 612 1476 c 256
 425 1476 253 1394 150 1276 c 257
 255 1156 l 257
 276 1156 l 257
EndSplineSet
EndChar

StartChar: u
Encoding: 85 117 359
Width: 1218
VWidth: 0
GlyphClass: 2
Flags: W
PickledData: "(dp1
S'org.pippin.gimp.org.kernagic'
p2
(dp3
S'lstem'
p4
I0
sS'rstem'
p5
I0
ssS'com.typemytype.robofont.layerData'
p6
(dp7
sS'com.fontlab.hintData'
p8
(dp9
S'vhints'
p10
((dp11
S'position'
p12
I162
sS'width'
p13
I166
s(dp14
g12
I862
sg13
I166
stp15
sS'hhints'
p16
((dp17
g12
I-21
sg13
I126
stp18
ssS'org.robofab.postScriptHintData'
p19
(dp20
s."
HStem: -21 126
VStem: 162 166 862 166
AnchorPoint: "bot" 580 1 basechar 0
AnchorPoint: "ogonek" 965 1 basechar 0
AnchorPoint: "top" 620 1083 basechar 0
LayerCount: 2
Fore
SplineSet
844 266 m 257
 804 214 726 132 573 132 c 256
 419 132 360 230 360 417 c 258
 360 1082 l 257
 143 1082 l 257
 143 405 l 258
 143 125 275 -20 528 -20 c 256
 689 -20 793 47 862 139 c 257
 873 0 l 257
 1061 0 l 257
 1061 1082 l 257
 844 1082 l 257
 844 266 l 257
EndSplineSet
EndChar

StartChar: underscore
Encoding: 63 95 367
Width: 925
VWidth: 0
GlyphClass: 2
Flags: W
PickledData: "(dp1
S'org.pippin.gimp.org.kernagic'
p2
(dp3
S'lstem'
p4
I0
sS'rstem'
p5
I0
ssS'com.typemytype.robofont.layerData'
p6
(dp7
sS'org.robofab.postScriptHintData'
p8
(dp9
s."
LayerCount: 2
Fore
SplineSet
0 -268 m 257
 925 -268 l 257
 925 -125 l 257
 0 -125 l 257
 0 -268 l 257
EndSplineSet
EndChar

StartChar: uni00AD
Encoding: 108 173 369
Width: 916
VWidth: 0
GlyphClass: 2
Flags: W
PickledData: "(dp1
S'org.robofab.postScriptHintData'
p2
(dp3
s."
LayerCount: 2
Fore
SplineSet
124 413 m 257
 789 413 l 257
 789 574 l 257
 124 574 l 257
 124 413 l 257
EndSplineSet
EndChar

StartChar: uni00B2
Encoding: 113 178 370
Width: 797
VWidth: 0
GlyphClass: 2
Flags: W
PickledData: "(dp1
S'org.robofab.postScriptHintData'
p2
(dp3
sS'com.typemytype.robofont.layerData'
p4
(dp5
s."
LayerCount: 2
Fore
SplineSet
153 637 m 257
 676 637 l 257
 687 753 l 257
 358 753 l 257
 471 861 467 849 550 932 c 256
 637 1021 688 1115 688 1229 c 256
 688 1402 557 1496 417 1496 c 256
 288 1496 189 1452 123 1364 c 257
 189 1268 l 257
 241 1334 314 1371 407 1371 c 256
 486 1371 548 1313 548 1226 c 256
 548 1172 498 1099 442 1031 c 257
 299 873 255 856 153 753 c 257
 153 637 l 257
EndSplineSet
EndChar

StartChar: uni00B3
Encoding: 114 179 371
Width: 878
VWidth: 0
GlyphClass: 2
Flags: W
PickledData: "(dp1
S'org.robofab.postScriptHintData'
p2
(dp3
sS'com.typemytype.robofont.layerData'
p4
(dp5
s."
LayerCount: 2
Fore
SplineSet
435 618 m 256
 596 618 739 700 739 870 c 256
 739 976 674 1058 579 1079 c 257
 676 1100 726 1177 727 1271 c 256
 727 1430 601 1493 458 1493 c 256
 349 1493 241 1460 170 1402 c 257
 221 1311 l 257
 280 1355 353 1383 438 1383 c 256
 529 1383 598 1345 598 1259 c 256
 598 1181 557 1129 429 1129 c 258
 313 1129 l 257
 313 1022 l 257
 428 1023 l 257
 431 1023 l 258
 550 1023 611 962 611 875 c 256
 611 778 530 730 432 730 c 256
 342 730 266 760 217 805 c 257
 164 702 l 257
 234 647 334 618 435 618 c 256
EndSplineSet
EndChar

StartChar: uni00B9
Encoding: 120 185 373
Width: 878
VWidth: 0
GlyphClass: 2
Flags: W
PickledData: "(dp1
S'org.robofab.postScriptHintData'
p2
(dp3
sS'com.typemytype.robofont.layerData'
p4
(dp5
s."
LayerCount: 2
Fore
SplineSet
257 614 m 257
 735 614 l 257
 735 739 l 257
 575 739 l 257
 575 1481 l 257
 454 1481 l 257
 419 1454 301 1394 248 1373 c 257
 248 1247 l 257
 275 1252 383 1301 420 1322 c 257
 420 739 l 257
 257 739 l 257
 257 614 l 257
EndSplineSet
EndChar

StartChar: uni02C9
Encoding: 400 713 442
Width: 600
VWidth: 0
GlyphClass: 4
Flags: W
PickledData: "(dp1
S'org.robofab.postScriptHintData'
p2
(dp3
s."
AnchorPoint: "top" 303 1069 mark 0
LayerCount: 2
Fore
SplineSet
-21 1322 m 257
 612 1322 l 257
 612 1464 l 257
 -21 1464 l 257
 -21 1322 l 257
EndSplineSet
EndChar

StartChar: uni0307
Encoding: 407 775 443
Width: 477
VWidth: 0
GlyphClass: 4
Flags: W
PickledData: "(dp1
S'org.robofab.postScriptHintData'
p2
(dp3
sS'com.typemytype.robofont.layerData'
p4
(dp5
s."
LayerCount: 2
Fore
SplineSet
383 1453 m 256
 383 1534 332 1583 244 1583 c 256
 155 1583 103 1534 103 1453 c 256
 103 1369 155 1319 244 1319 c 256
 332 1319 383 1369 383 1453 c 256
EndSplineSet
EndChar

StartChar: uni2074
Encoding: 460 8308 462
Width: 699
VWidth: 0
GlyphClass: 2
Flags: W
PickledData: "(dp1
S'org.robofab.postScriptHintData'
p2
(dp3
sS'com.typemytype.robofont.layerData'
p4
(dp5
s."
LayerCount: 2
Fore
SplineSet
179 924 m 257
 398 1306 l 257
 397 924 l 257
 179 924 l 257
396 614 m 257
 531 614 l 257
 530 815 l 257
 641 815 l 257
 650 924 l 257
 532 924 l 257
 532 1483 l 257
 388 1483 l 257
 35 931 l 257
 35 815 l 257
 396 815 l 257
 396 614 l 257
EndSplineSet
EndChar

StartChar: afii61289
Encoding: 462 8467 463
Width: 1246
VWidth: 0
Flags: W
PickledData: "(dp1
S'org.robofab.postScriptHintData'
p2
(dp3
s."
LayerCount: 2
Fore
SplineSet
301 272 m 256
 301 67 408 -20 569 -20 c 256
 807 -20 963 98 963 98 c 257
 937 237 l 257
 836 186 746 153 667 153 c 256
 581 153 540 195 540 285 c 256
 540 321 547 365 560 417 c 258
 613 635 l 257
 931 886 l 258
 1135 1047 1236 1248 1236 1409 c 256
 1236 1571 1134 1692 931 1692 c 256
 788 1692 641 1621 580 1396 c 258
 377 646 l 257
 77 421 l 257
 125 334 l 257
 331 484 l 257
 310 403 301 332 301 272 c 256
660 828 m 257
 777 1312 l 257
 809 1452 859 1513 954 1513 c 256
 1041 1513 1086 1459 1086 1378 c 256
 1086 1273 1011 1124 854 993 c 257
 660 828 l 257
EndSplineSet
EndChar

StartChar: Delta
Encoding: 468 8710 465
Width: 1293
VWidth: 0
Flags: W
PickledData: "(dp1
S'org.pippin.gimp.org.kernagic'
p2
(dp3
S'lstem'
p4
I0
sS'rstem'
p5
I0
ssS'com.typemytype.robofont.layerData'
p6
(dp7
S'b'
(dp8
S'name'
p9
S'uni2206'
p10
sS'lib'
p11
(dp12
sS'unicodes'
p13
(tsS'width'
p14
I1278
sS'contours'
p15
(tsS'components'
p16
(tsS'anchors'
p17
(tsssS'org.robofab.postScriptHintData'
p18
(dp19
s."
LayerCount: 2
Fore
SplineSet
678 1203 m 257
 1030 175 l 257
 265 175 l 257
 611 1203 l 257
 644 1322 l 257
 678 1203 l 257
554 1551 m 257
 67 86 l 257
 67 0 l 257
 1228 0 l 257
 1228 86 l 257
 742 1551 l 257
 554 1551 l 257
EndSplineSet
EndChar

StartChar: v
Encoding: 86 118 476
Width: 1085
VWidth: 0
GlyphClass: 2
Flags: W
PickledData: "(dp1
S'org.pippin.gimp.org.kernagic'
p2
(dp3
S'lstem'
p4
I0
sS'rstem'
p5
I0
ssS'com.typemytype.robofont.guides'
p6
((dp7
S'y'
I552
sS'x'
I438
sS'magnetic'
p8
I5
sS'angle'
p9
I0
sS'isGlobal'
p10
I00
stp11
sS'com.typemytype.robofont.layerData'
p12
(dp13
sS'org.robofab.postScriptHintData'
p14
(dp15
s."
LayerCount: 2
Fore
SplineSet
438 0 m 257
 657 0 l 257
 1039 1082 l 257
 820 1082 l 257
 731 803 641 523 553 243 c 257
 458 521 366 802 273 1082 c 257
 50 1082 l 257
 438 0 l 257
EndSplineSet
EndChar

StartChar: w
Encoding: 87 119 477
Width: 1513
VWidth: 0
GlyphClass: 2
Flags: W
PickledData: "(dp1
S'org.pippin.gimp.org.kernagic'
p2
(dp3
S'lstem'
p4
I0
sS'rstem'
p5
I0
ssS'com.typemytype.robofont.layerData'
p6
(dp7
sS'org.robofab.postScriptHintData'
p8
(dp9
s."
AnchorPoint: "top" 764 1082 basechar 0
LayerCount: 2
Fore
SplineSet
766 875 m 257
 1017 -2 l 257
 1215 -2 l 257
 1493 1082 l 257
 1299 1082 l 257
 1113 253 l 257
 870 1082 l 257
 654 1082 l 257
 417 253 l 257
 223 1082 l 257
 20 1082 l 257
 308 -2 l 257
 502 -2 l 257
 766 875 l 257
EndSplineSet
EndChar

StartChar: x
Encoding: 88 120 482
Width: 1066
VWidth: 0
GlyphClass: 2
Flags: W
PickledData: "(dp1
S'org.pippin.gimp.org.kernagic'
p2
(dp3
S'lstem'
p4
I0
sS'rstem'
p5
I0
ssS'com.typemytype.robofont.layerData'
p6
(dp7
sS'com.fontlab.hintData'
p8
(dp9
S'hhints'
p10
((dp11
S'position'
p12
I0
sS'width'
p13
I22
s(dp14
g12
I1034
sg13
I21
stp15
ssS'org.robofab.postScriptHintData'
p16
(dp17
s."
HStem: 0 22 1034 21
LayerCount: 2
Fore
SplineSet
655 549 m 257
 1015 1082 l 257
 802 1082 l 257
 551 705 l 257
 299 1082 l 257
 62 1082 l 257
 419 547 l 257
 41 -2 l 257
 255 -2 l 257
 523 391 l 257
 785 -2 l 257
 1023 -2 l 257
 655 549 l 257
EndSplineSet
EndChar

StartChar: y
Encoding: 89 121 483
Width: 1132
VWidth: 0
GlyphClass: 2
Flags: W
PickledData: "(dp1
S'org.pippin.gimp.org.kernagic'
p2
(dp3
S'lstem'
p4
I0
sS'rstem'
p5
I0
ssS'com.typemytype.robofont.layerData'
p6
(dp7
sS'org.robofab.postScriptHintData'
p8
(dp9
s."
AnchorPoint: "top" 576 1082 basechar 0
LayerCount: 2
Fore
SplineSet
1097 1082 m 257
 890 1082 l 257
 579 291 l 257
 247 1082 l 257
 26 1082 l 257
 471 66 l 257
 300 -367 l 257
 481 -422 l 257
 1097 1082 l 257
EndSplineSet
EndChar

StartChar: yen
Encoding: 100 165 487
Width: 1361
VWidth: 0
GlyphClass: 2
Flags: W
PickledData: "(dp1
S'org.pippin.gimp.org.kernagic'
p2
(dp3
S'lstem'
p4
I0
sS'rstem'
p5
I0
ssS'com.typemytype.robofont.layerData'
p6
(dp7
S'b'
(dp8
S'name'
p9
S'yen'
p10
sS'lib'
p11
(dp12
sS'unicodes'
p13
(tsS'width'
p14
I1366
sS'contours'
p15
(tsS'components'
p16
(tsS'anchors'
p17
(tsssS'org.robofab.postScriptHintData'
p18
(dp19
s."
LayerCount: 2
Fore
SplineSet
244 514 m 257
 1092 514 l 257
 1092 631 l 257
 244 631 l 257
 244 514 l 257
244 253 m 257
 1092 253 l 257
 1092 369 l 257
 244 369 l 257
 244 253 l 257
EndSplineSet
Refer: 122 89 N 1 0 0 1 0 0 2
EndChar

StartChar: z
Encoding: 90 122 489
Width: 1001
VWidth: 0
GlyphClass: 2
Flags: W
PickledData: "(dp1
S'org.pippin.gimp.org.kernagic'
p2
(dp3
S'lstem'
p4
I0
sS'rstem'
p5
I0
ssS'com.typemytype.robofont.layerData'
p6
(dp7
sS'org.robofab.postScriptHintData'
p8
(dp9
s."
AnchorPoint: "bot" 487 0 basechar 0
AnchorPoint: "top" 504 1082 basechar 0
LayerCount: 2
Fore
SplineSet
111 1082 m 257
 114 936 l 257
 661 936 l 257
 94 127 l 257
 94 0 l 257
 903 0 l 257
 899 153 l 257
 337 153 l 257
 891 945 l 257
 891 1082 l 257
 111 1082 l 257
EndSplineSet
EndChar

StartChar: zero
Encoding: 16 48 493
Width: 1284
VWidth: 0
GlyphClass: 2
Flags: W
PickledData: "(dp1
S'org.pippin.gimp.org.kernagic'
p2
(dp3
S'lstem'
p4
I0
sS'rstem'
p5
I0
ssS'com.typemytype.robofont.layerData'
p6
(dp7
S'b'
(dp8
S'name'
p9
S'zero'
p10
sS'lib'
p11
(dp12
sS'unicodes'
p13
(tsS'width'
p14
I1248
sS'contours'
p15
(tsS'components'
p16
(tsS'anchors'
p17
(tsssS'org.robofab.postScriptHintData'
p18
(dp19
s."
LayerCount: 2
Fore
SplineSet
646 -20 m 256
 998 -20 1163 262 1163 710 c 256
 1163 1175 986 1476 646 1476 c 256
 305 1476 121 1174 121 710 c 256
 121 262 293 -20 646 -20 c 256
646 158 m 256
 463 158 350 323 350 714 c 256
 350 1089 464 1299 646 1299 c 256
 828 1299 934 1111 934 715 c 256
 934 323 828 158 646 158 c 256
EndSplineSet
EndChar

StartChar: Sigma
Encoding: 414 931 495
Width: 1091
VWidth: 0
GlyphClass: 2
Flags: HW
LayerCount: 2
Fore
SplineSet
83 1456 m 257
 83 1325 l 257
 569 613 l 257
 66 -88 l 257
 66 -214 l 257
 1057 -214 l 257
 1057 -30 l 257
 334 -30 l 257
 812 613 l 257
 364 1280 l 257
 1014 1280 l 257
 1014 1456 l 257
 83 1456 l 257
EndSplineSet
EndChar

StartChar: uni03BC
Encoding: 416 956 496
Width: 1206
VWidth: 0
GlyphClass: 2
Flags: HW
LayerCount: 2
Fore
SplineSet
844 266 m 1
 804 214 726 132 573 132 c 0
 419 132 360 230 360 417 c 0
 360 1082 l 1
 143 1082 l 1
 143 -296 l 1
 360 -296 l 1
 360 7.44906048946 l 1
 408.203008892 -10.7970140698 464.261637903 -20 528 -20 c 0
 689 -20 793 47 862 139 c 1
 873 0 l 1
 1061 0 l 1
 1061 1082 l 1
 844 1082 l 1
 844 266 l 1
EndSplineSet
EndChar

StartChar: emptyset
Encoding: 467 8709 497
Width: 1678
VWidth: 0
GlyphClass: 2
Flags: HW
LayerCount: 2
Fore
SplineSet
92 733 m 0
 92 1161.20895552 447.803721888 1493 832 1493 c 0
 1004.85200374 1493 1170.93717911 1426.03872991 1302.25396199 1314.13037159 c 1
 1478.54607665 1512.33450051 l 1
 1547.15096548 1458.56310116 l 1
 1364.28212122 1254.47742967 l 1
 1490.54897088 1119.831876 1572 937.61321456 1572 733 c 0
 1572 304.791044477 1216.19627811 -27 832 -27 c 0
 663.133917543 -27 500.146456093 37.631589933 370.94503235 144.151819956 c 1
 178.498084916 -71.3486680568 l 1
 116.891684899 -15.5178680417 l 1
 309.53743454 201.208600305 l 1
 176.692216475 337.968434016 92 523.396919126 92 733 c 0
426.636265008 206.025203635 m 1
 542.702719724 111.321994595 684.911940389 57 832 57 c 0
 1171.79217383 57 1489 352.196118382 1489 733 c 0
 1489 912.744001582 1418.02839451 1073.01638738 1308.42478797 1192.4655513 c 1
 426.636265008 206.025203635 l 1
365.208967595 263.17321661 m 1
 1246.64692678 1252.24551405 l 1
 1130.14682228 1351.26924474 983.104250407 1409 832 1409 c 0
 492.20782617 1409 175 1113.80388162 175 733 c 0
 175 548.228185888 249.494910024 383.534411692 365.208967595 263.17321661 c 1
EndSplineSet
EndChar

StartChar: uni03A9
Encoding: 415 937 498
Width: 1603
VWidth: 0
GlyphClass: 2
Flags: HW
LayerCount: 2
Fore
SplineSet
123 0 m 257
 108 117 l 257
 469 117 l 257
 268 256 123 485 123 773 c 256
 123 1183 419 1447 816 1447 c 256
 1228 1447 1486 1154 1486 770 c 256
 1486 475 1310 252 1134 117 c 257
 1491 117 l 257
 1478 0 l 257
 972 0 l 257
 971 110 l 257
 1178 248 1330 473 1330 751 c 256
 1330 1056 1155 1319 810 1319 c 256
 496 1319 279 1093 279 756 c 256
 279 480 422 247 634 110 c 257
 635 0 l 257
 123 0 l 257
EndSplineSet
EndChar

StartChar: uni0358
Encoding: 412 856 499
Width: 477
VWidth: 0
GlyphClass: 4
Flags: HW
LayerCount: 2
Fore
SplineSet
383 1453 m 256
 383 1534 332 1583 244 1583 c 256
 155 1583 103 1534 103 1453 c 256
 103 1369 155 1319 244 1319 c 256
 332 1319 383 1369 383 1453 c 256
EndSplineSet
EndChar

StartChar: uni0259
Encoding: 397 601 500
Width: 1148
VWidth: 0
Flags: HW
HStem: 1010 94 11 92
LayerCount: 2
Fore
SplineSet
840 459 m 261
 823 253 710 133 548 133 c 260
 387 133 311 248 309 459 c 261
 840 459 l 261
134 591 m 261
 134 591 124 518 124 478 c 260
 124 174 276 -20 558 -20 c 260
 843 -20 1064 189 1064 546 c 260
 1064 893 838 1105 533 1105 c 260
 374 1105 239 1058 151 993 c 261
 200 861 l 261
 213 861 l 261
 302 912 385 951 506 951 c 260
 690 951 827 841 843 591 c 261
 134 591 l 261
EndSplineSet
EndChar
